<svg id="Capa_1" data-name="Capa 1" xmlns="http://www.w3.org/2000/svg" viewBox="0 0 612 792"><defs><style>.cls-1{fill:#fff;stroke:#1d1d1b;stroke-miterlimit:10;}.cls-2{font-size:10px;font-family:MyriadPro-Regular, Myriad Pro;}.cls-3{letter-spacing:-0.01em;}.cls-4{letter-spacing:0em;}.cls-5{letter-spacing:-0.01em;}.cls-6{letter-spacing:-0.02em;}.cls-7,.cls-8{fill:none;stroke:#231f20;stroke-linecap:round;stroke-linejoin:round;}.cls-8{stroke-width:0.75px;}.cls-9{letter-spacing:-0.01em;}.cls-10{opacity:0.1;}.cls-11{fill:#050505;}</style></defs><line class="cls-1" x1="51.59" y1="740.81" x2="560.41" y2="740.81"/><text class="cls-2" transform="translate(71.11 768.6)">in<tspan class="cls-3" x="7.89" y="0">f</tspan><tspan class="cls-4" x="10.68" y="0">o@s</tspan><tspan class="cls-5" x="27.5" y="0">y</tspan><tspan x="32.15" y="0">s</tspan><tspan class="cls-5" x="36.11" y="0">t</tspan><tspan x="39.36" y="0">emsg</tspan><tspan class="cls-6" x="62.26" y="0">g</tspan><tspan class="cls-4" x="67.7" y="0">.</tspan><tspan class="cls-5" x="69.77" y="0">c</tspan><tspan x="74.19" y="0">om</tspan></text><rect class="cls-7" x="51.59" y="759.85" width="16.77" height="11.63"/><polyline class="cls-7" points="51.59 759.85 59.98 767.12 68.36 759.85"/><line class="cls-7" x1="51.59" y1="771.48" x2="58.3" y2="765.67"/><line class="cls-7" x1="61.65" y1="765.67" x2="68.36" y2="771.48"/><text class="cls-2" transform="translate(283.74 769.62)">+51 949-421-023</text><path class="cls-8" d="M281.61,765a44.07,44.07,0,0,1-8.22,8.23c-1.56,1.17-4.8-1.27-4-2.08l2.55-2.55a.66.66,0,0,1,.94,0,2.07,2.07,0,0,1,.82,1.44,19.38,19.38,0,0,0,4.36-4.36,2.1,2.1,0,0,1-1.44-.81.68.68,0,0,1,0-1l2.78-2.78C280.43,760.09,282.59,763.72,281.61,765Z"/><path class="cls-8" d="M268.87,769.07l-.09-.17a6.25,6.25,0,0,1-.24-.6,5.45,5.45,0,0,1-.18-.8,6.77,6.77,0,0,1-.08-1,6.66,6.66,0,0,1,6.64-6.64,6.77,6.77,0,0,1,1,.08,5.45,5.45,0,0,1,.8.18,6.25,6.25,0,0,1,.6.24"/><path class="cls-8" d="M270,768.44a2.92,2.92,0,0,1-.19-.49,3.5,3.5,0,0,1-.15-.64,5.55,5.55,0,0,1-.07-.82,5.36,5.36,0,0,1,5.35-5.35,5.55,5.55,0,0,1,.82.07,3.5,3.5,0,0,1,.64.15l.11,0"/><path class="cls-8" d="M271,767.6a3.89,3.89,0,0,1-.12-.49,4.21,4.21,0,0,1,0-.62,4,4,0,0,1,4.05-4,4.21,4.21,0,0,1,.62,0c.15,0,.29.06.43.09"/><path class="cls-8" d="M272.25,767.18a1.07,1.07,0,0,1-.06-.27,3,3,0,0,1,0-.42,2.73,2.73,0,0,1,2.76-2.76l.42,0"/><path class="cls-8" d="M273.45,766.49a1.47,1.47,0,0,1,1.47-1.47"/><text class="cls-2" transform="translate(492.93 769.42)">s<tspan class="cls-5" x="3.96" y="0">y</tspan><tspan x="8.61" y="0">s</tspan><tspan class="cls-5" x="12.57" y="0">t</tspan><tspan x="15.82" y="0">emsg</tspan><tspan class="cls-9" x="38.72" y="0">g</tspan><tspan x="44.16" y="0">.</tspan><tspan class="cls-5" x="46.23" y="0">c</tspan><tspan x="50.65" y="0">om</tspan></text><circle class="cls-8" cx="483.84" cy="766.49" r="6.63"/><path class="cls-8" d="M489.75,763.47s0,.08,0,.13c0,1.08-2.65,1.95-5.92,1.95s-5.93-.87-5.93-1.95a.51.51,0,0,1,0-.13"/><path class="cls-8" d="M486.92,760.61a.5.5,0,0,1,.19.36c0,.6-1.46,1.09-3.27,1.09s-3.28-.49-3.28-1.09a.48.48,0,0,1,.21-.37"/><path class="cls-8" d="M489.48,770c-.75.8-3,1.38-5.64,1.38s-4.9-.58-5.64-1.38"/><path class="cls-8" d="M490.47,766.49c0,1.17-3,2.13-6.63,2.13s-6.64-1-6.64-2.13"/><path class="cls-8" d="M483.84,773.12c-3.16,0-5.73-3-5.73-6.63s2.57-6.64,5.73-6.64"/><path class="cls-8" d="M483.84,773.12c-1.89,0-3.41-3-3.41-6.63s1.52-6.64,3.41-6.64"/><path class="cls-8" d="M483.84,759.85c2.82,0,5.11,3,5.11,6.64s-2.29,6.63-5.11,6.63"/><path class="cls-8" d="M483.84,773.12c-.37,0-.67-3-.67-6.63s.3-6.64.67-6.64"/><path class="cls-8" d="M483.84,759.85c1.41,0,2.55,3,2.55,6.64s-1.14,6.63-2.55,6.63"/><g class="cls-10"><polygon class="cls-11" points="527.89 319.57 488.79 293.63 488.76 293.58 488.74 293.59 488.71 293.58 488.68 293.63 335.86 401.71 335.07 401.71 335.07 427.59 370.81 451.94 372.37 454.14 463.8 389.48 463.58 518.43 463.12 519.07 463.75 519.52 463.75 526.63 248.5 682.09 302.81 721.79 527.25 559.7 527.25 519.01 527.48 519.01 527.8 331.25 527.76 331.25 527.89 331.05 527.89 319.57"/><polygon class="cls-11" points="260.4 546.05 245.11 555.46 229.82 546.05 229.82 527.23 245.11 517.82 260.4 527.23 260.4 546.05"/><polygon class="cls-11" points="226.41 442.9 210.7 452.65 194.99 442.9 194.99 423.4 210.7 413.65 226.41 423.4 226.41 442.9"/><polygon class="cls-11" points="97.21 375.43 84.47 383.44 71.73 375.43 71.73 359.41 84.47 351.41 97.21 359.41 97.21 375.43"/><polygon class="cls-11" points="303.83 494.3 274.47 512.51 245.11 494.3 245.11 457.87 274.47 439.65 303.83 457.87 303.83 494.3"/><polygon class="cls-11" points="137.78 552.6 107.65 571.27 77.52 552.6 77.52 515.26 107.65 496.59 137.78 515.26 137.78 552.6"/><polygon class="cls-11" points="131.99 449.3 101.86 467.4 71.73 449.3 71.73 413.11 101.86 395.01 131.99 413.11 131.99 449.3"/><polygon class="cls-11" points="420.48 503.95 382.61 480.05 224.88 593.3 200.81 575.62 200.81 544.12 178.97 529.16 157.14 542.91 157.14 570.99 133.41 586.76 132.99 597.19 155.02 613.31 155.02 613.31 225.61 665.16 416.52 528.08 416.52 528.08 416.9 527.81 416.9 527.8 420.48 525.12 420.48 503.95"/><polygon class="cls-11" points="514.57 96.44 488.86 112.01 488.86 138.07 449.54 166.56 441.02 161 415.64 178.97 415.56 210.87 211.84 353.57 212.57 395.56 236.63 411.3 247.48 404.45 465.33 251.85 466.33 177.51 465.57 177.02 501.65 150.87 514.57 158.69 540.27 143.13 540.27 112.01 514.57 96.44"/><polygon class="cls-11" points="517.03 217.06 502.42 227.07 487.22 217.99 486.62 198.91 501.23 188.9 516.44 197.98 517.03 217.06"/><polygon class="cls-11" points="419.85 70.21 398.58 82.76 398.58 105.15 369.44 125.88 369.61 126.12 369.57 126.12 369.57 156.84 133.74 321.45 133.69 321.45 133.69 321.49 133.69 321.49 133.69 321.5 133.69 351.19 116.36 361.84 116.36 388.14 136.91 401.31 160.63 386.18 160.93 456.16 140.82 468.33 140.82 504.94 171.06 523.25 201.29 504.94 201.29 468.33 184.1 457.92 183.65 353.46 182.41 347.67 397.85 197.29 397.86 197.29 397.86 130.53 415.6 117.91 419.85 120.42 441.11 107.87 441.11 82.76 419.85 70.21"/><polygon class="cls-11" points="310.49 102.42 284 118.47 284 145.04 77.15 286.7 77.15 331.5 92.66 342.36 108.16 332.41 108.16 305.4 312.77 165.27 336.97 150.59 336.97 118.47 310.49 102.42"/></g></svg>