<svg id="Capa_1" data-name="Capa 1" xmlns="http://www.w3.org/2000/svg" viewBox="0 0 612 792"><defs><style>.cls-1{font-size:10px;}.cls-1,.cls-6{font-family:MyriadPro-Regular, Myriad Pro;}.cls-2{letter-spacing:-0.07em;}.cls-3{letter-spacing:-0.05em;}.cls-4{fill:#fff;stroke:#1d1d1b;}.cls-4,.cls-5{stroke-miterlimit:10;}.cls-5{fill:none;stroke:#000;stroke-width:2px;}.cls-6{font-size:13px;}.cls-7{letter-spacing:0em;}</style></defs><text class="cls-1" transform="translate(271.86 488.55)">GUS<tspan class="cls-2" x="17.86" y="0">T</tspan><tspan class="cls-3" x="22.08" y="0">A</tspan><tspan x="27.67" y="0">VO NORIEGA</tspan></text><line class="cls-4" x1="212.28" y1="465.01" x2="412.43" y2="465.01"/><path class="cls-5" d="M266.5,430.33a6.12,6.12,0,0,1,10.18,2.46,9.16,9.16,0,0,1,.36,2.08,3.14,3.14,0,0,1-.25,1.75,4.77,4.77,0,0,1-1.19,1.18,8.77,8.77,0,0,0-2.69,6.82,5.09,5.09,0,0,0,.43,2.22,3.59,3.59,0,0,0,3.84,1.78,4.53,4.53,0,0,0,3.25-2.89"/><path class="cls-5" d="M284.13,428.91c-.06,2.4-.09,4.81-.09,7.21a2.05,2.05,0,0,0,.48,1.61,2.11,2.11,0,0,0,1.14.36c1.55.16,3.36.24,4.42-.91,1.64-1.77.12-4.69.75-7"/><path class="cls-5" d="M297.5,438.07c1.49,1.21,3.92.45,4.93-1.18a6.3,6.3,0,0,0,.16-5.53c-.74-2-2.65-3.9-4.65-3.28a4.69,4.69,0,0,0,3.61,2.28,28.48,28.48,0,0,0,4.43,0,4.49,4.49,0,0,1,1.82.28c2.09.92,2,3.89,1.48,6.13a2.33,2.33,0,0,1-2,.21,4.86,4.86,0,0,1,6.44,1.09c3.21-1.94,5.1-5.57,5.78-9.26s.33-7.48,0-11.21l.18,19.41a1.76,1.76,0,0,0,.22,1,1.48,1.48,0,0,0,1,.46,5.38,5.38,0,0,0,5.69-6.42h-2.32c-1,1.8-1.95,4.26-.49,5.71,1.2,1.17,3.35.71,4.47-.54a8.88,8.88,0,0,0,1.77-4.63,1.48,1.48,0,0,0-.08-1,1.5,1.5,0,0,0-1-.52,4.62,4.62,0,0,0-2.3-.13,1.59,1.59,0,0,0-1.22,1.71,1.81,1.81,0,0,0,1.06,1.11,4,4,0,0,0,5.2-2,17.91,17.91,0,0,0-1.87,7.93,8.67,8.67,0,0,0,4.48-1.29"/><path class="cls-5" d="M337,428.92c.16,4.19.44,8.39.82,12.57,4.08-2.53,4.87-8.55,9-11.06"/><path class="cls-5" d="M358.65,437.13c.08,3.4-2.77,6.3-6,7.42s-6.71.83-10.1.53l-17.94-1.56c-3.94-.34-8.43-.5-11.24,2.28-3,3-2.62,8.09-.69,11.86a2.48,2.48,0,0,0,1.43,1.44,2.6,2.6,0,0,0,1.44-.23,46.83,46.83,0,0,0,10.51-4.77c3.2-2.15,5.93-5.26,6.83-9,1.56-6.5-2.55-12.86-4.16-19.35a26.44,26.44,0,0,1,.06-12.93c1-3.78,3.91-7.94,7.75-7.24,2.29.42,3.88,2.43,5.25,4.3a18.24,18.24,0,0,1,3,5.18,16,16,0,0,1,.55,4.3c.1,4.82-.54,10-3.71,13.63-3.43,3.92-9,5.1-14.18,5.52-13.95,1.13-27.9-1.61-41.89-2.09-2.6-.09-5.49,0-7.38,1.8s-2.12,4.5-1.77,7a13.64,13.64,0,0,0,6.68,10.11c3.71,2,8.73,1.48,11.6-1.57s3.07-7.27,3-11.24a24,24,0,0,0-1.21-7.77,48.43,48.43,0,0,0-3-5.75c-4.18-7.67-5.15-17.9.32-24.72,2-2.46,5-4.41,8.13-3.82,4.32.82,6.35,6,6,10.43-.46,5.42-3.34,10.42-7.09,14.37s-8.35,7-12.92,9.94a16,16,0,0,1-5,2.47c-2.36.53-4.8,0-7.21-.17-4.85-.28-10.23,1-14.2-1.82,8.88-2.72,18.32-2.78,27.61-2.82l80-.29c1.27,0,2.75.09,3.46,1.14-6.76.63-12.87-.51-19.5-1.14-4.57-.44-7.94,4.07-4.68,8.35,1.56,2,6.41,4.39,8.93,2.84,2.23-1.38,3.47-8.78,2.05-10.94-1.61-2.46-5-2.54-7.77-1.25"/><path class="cls-5" d="M286.12,393.29c-4.37,1.29-8.73,3.25-11.74,6.68s-4.37,8.61-2.33,12.69c2.51,5,8.83,6.63,14.42,7,9.21.67,18.45-.44,27.61-1.55L340.52,415c3.79-.46,7.79-.89,11.32.57s6.31,5.52,5,9.1"/><path class="cls-5" d="M256.93,442.46c-.59,3.26,1.86,6.45,4.87,7.83s6.44,1.37,9.75,1.33l17.3-.18A62.78,62.78,0,0,0,297,451c2.68-.37,5.31-1.09,8-1.63a61,61,0,0,1,32.69,2.4,12.93,12.93,0,0,1,4.83,2.67A5.12,5.12,0,0,1,344,459.5"/><path class="cls-5" d="M266.44,409.65a8.57,8.57,0,0,0-7.24,1.75,18.39,18.39,0,0,0-4.72,6,21.62,21.62,0,0,0-1.57,3.51,14.62,14.62,0,0,0,2,12.91,11.51,11.51,0,0,0,7.45,4.78,8.12,8.12,0,0,0,7.92-3.36"/><path d="M55,292.45a3.92,3.92,0,0,0,2,.58c1.15,0,1.83-.61,1.83-1.5s-.47-1.29-1.65-1.74c-1.43-.51-2.32-1.25-2.32-2.48s1.13-2.38,2.84-2.38a3.87,3.87,0,0,1,1.93.43l-.31.92a3.41,3.41,0,0,0-1.66-.42c-1.2,0-1.65.72-1.65,1.32,0,.81.53,1.22,1.74,1.69,1.48.57,2.24,1.28,2.24,2.57S59.05,294,57,294a4.56,4.56,0,0,1-2.24-.56Z"/><path d="M63.55,293.83v-3.72l-2.77-5h1.29l1.24,2.42c.33.66.59,1.19.87,1.8h0c.25-.57.55-1.14.89-1.8l1.26-2.42h1.28l-2.93,5v3.73Z"/><path d="M68.31,292.45a4,4,0,0,0,2,.58c1.16,0,1.83-.61,1.83-1.5s-.47-1.29-1.65-1.74c-1.43-.51-2.31-1.25-2.31-2.48s1.13-2.38,2.83-2.38a3.88,3.88,0,0,1,1.94.43l-.31.92a3.45,3.45,0,0,0-1.67-.42c-1.19,0-1.65.72-1.65,1.32,0,.81.53,1.22,1.74,1.69,1.49.57,2.24,1.28,2.24,2.57s-1,2.52-3.07,2.52A4.59,4.59,0,0,1,68,293.4Z"/><path d="M76.54,286H73.88v-1h6.48v1H77.68v7.8H76.54Z"/><path d="M85.87,289.72h-3.4v3.16h3.79v.95H81.34v-8.76h4.73V286h-3.6v2.77h3.4Z"/><path d="M95.12,290c-.07-1.22-.15-2.69-.13-3.78h0c-.3,1-.67,2.12-1.11,3.33l-1.54,4.25h-.86L90,289.61c-.42-1.24-.77-2.37-1-3.41h0c0,1.09-.09,2.56-.17,3.87l-.23,3.76H87.5l.61-8.76h1.44l1.5,4.24c.36,1.08.66,2,.88,2.95h0c.22-.89.53-1.85.92-2.95l1.56-4.24H95.9l.54,8.76h-1.1Z"/><path d="M98,292.45a4,4,0,0,0,2,.58c1.15,0,1.83-.61,1.83-1.5s-.47-1.29-1.65-1.74c-1.43-.51-2.32-1.25-2.32-2.48s1.14-2.38,2.84-2.38a3.88,3.88,0,0,1,1.94.43l-.32.92a3.41,3.41,0,0,0-1.66-.42c-1.2,0-1.65.72-1.65,1.32,0,.81.53,1.22,1.74,1.69,1.48.57,2.24,1.28,2.24,2.57s-1,2.52-3.07,2.52a4.56,4.56,0,0,1-2.24-.56Z"/><path d="M111.26,293.44a8.19,8.19,0,0,1-2.69.48,4.12,4.12,0,0,1-4.5-4.42,4.4,4.4,0,0,1,4.75-4.52,5.43,5.43,0,0,1,2.18.4l-.27.92a4.68,4.68,0,0,0-1.94-.37,3.27,3.27,0,0,0-3.52,3.52,3.22,3.22,0,0,0,3.38,3.54,3.68,3.68,0,0,0,1.51-.24v-2.61h-1.78v-.91h2.88Z"/><path d="M119.66,293.44a8.25,8.25,0,0,1-2.69.48,4.1,4.1,0,0,1-4.5-4.42,4.4,4.4,0,0,1,4.75-4.52,5.47,5.47,0,0,1,2.18.4l-.27.92a4.68,4.68,0,0,0-1.94-.37,3.27,3.27,0,0,0-3.52,3.52,3.22,3.22,0,0,0,3.38,3.54,3.68,3.68,0,0,0,1.51-.24v-2.61h-1.78v-.91h2.88Z"/><path d="M124,292.66a3,3,0,0,0,1.51.46c.83,0,1.22-.42,1.22-.94s-.32-.84-1.17-1.16c-1.13-.4-1.66-1-1.66-1.78A1.94,1.94,0,0,1,126,287.4a3.15,3.15,0,0,1,1.55.39l-.29.83a2.41,2.41,0,0,0-1.29-.37c-.67,0-1,.39-1,.86s.38.76,1.2,1.07c1.09.41,1.65,1,1.65,1.9,0,1.1-.86,1.88-2.36,1.88a3.55,3.55,0,0,1-1.76-.43Z"/><path d="M129.89,290.89a2,2,0,0,0,2.16,2.19,4,4,0,0,0,1.74-.33l.2.82a5.12,5.12,0,0,1-2.1.39,2.92,2.92,0,0,1-3.09-3.17c0-1.9,1.12-3.39,2.95-3.39,2.06,0,2.6,1.8,2.6,3a3.17,3.17,0,0,1,0,.53Zm3.36-.82a1.63,1.63,0,0,0-1.59-1.85,1.88,1.88,0,0,0-1.75,1.85Z"/><path d="M139.16,290.89a2,2,0,0,0,2.16,2.19,4,4,0,0,0,1.74-.33l.2.82a5.2,5.2,0,0,1-2.1.39,2.92,2.92,0,0,1-3.09-3.17c0-1.9,1.12-3.39,3-3.39,2,0,2.6,1.8,2.6,3a4.82,4.82,0,0,1,0,.53Zm3.36-.82a1.63,1.63,0,0,0-1.59-1.85,1.9,1.9,0,0,0-1.76,1.85Z"/><path d="M144.88,292.66a3,3,0,0,0,1.51.46c.83,0,1.22-.42,1.22-.94s-.32-.84-1.17-1.16c-1.13-.4-1.66-1-1.66-1.78A1.94,1.94,0,0,1,147,287.4a3.15,3.15,0,0,1,1.55.39l-.29.83a2.41,2.41,0,0,0-1.29-.37c-.67,0-1,.39-1,.86s.38.76,1.2,1.07c1.09.41,1.65,1,1.65,1.9,0,1.1-.86,1.88-2.36,1.88a3.62,3.62,0,0,1-1.77-.43Z"/><path d="M150.19,289.59c0-.8,0-1.45-.06-2h1l.05,1.08h0a2.47,2.47,0,0,1,2.23-1.22c1.53,0,2.67,1.28,2.67,3.19,0,2.27-1.38,3.39-2.86,3.39a2.23,2.23,0,0,1-1.94-1h0v3.42h-1.13Zm1.13,1.68a2.26,2.26,0,0,0,.05.47,1.77,1.77,0,0,0,1.72,1.34c1.2,0,1.91-1,1.91-2.43,0-1.26-.67-2.34-1.88-2.34a1.84,1.84,0,0,0-1.73,1.41,2.54,2.54,0,0,0-.07.47Z"/><path d="M158.22,290.89a2,2,0,0,0,2.16,2.19,4,4,0,0,0,1.74-.33l.19.82a5.11,5.11,0,0,1-2.09.39,2.91,2.91,0,0,1-3.09-3.17c0-1.9,1.12-3.39,3-3.39,2,0,2.6,1.8,2.6,3a4.82,4.82,0,0,1,0,.53Zm3.35-.82a1.62,1.62,0,0,0-1.58-1.85,1.89,1.89,0,0,0-1.76,1.85Z"/><path d="M168.58,293.6a4.32,4.32,0,0,1-1.81.36,3,3,0,0,1-3.13-3.21,3.2,3.2,0,0,1,3.38-3.34,4,4,0,0,1,1.59.32l-.26.89a2.66,2.66,0,0,0-1.33-.3,2.18,2.18,0,0,0-2.22,2.38,2.15,2.15,0,0,0,2.18,2.35,3.26,3.26,0,0,0,1.4-.31Z"/><path d="M171.19,285.77a.71.71,0,0,1-1.41,0,.69.69,0,0,1,.71-.71A.67.67,0,0,1,171.19,285.77Zm-1.27,8.06v-6.29h1.14v6.29Z"/><path d="M176.45,293.83l-.1-.79h0a2.34,2.34,0,0,1-1.92.94,1.79,1.79,0,0,1-1.92-1.81c0-1.52,1.35-2.36,3.78-2.34v-.13a1.3,1.3,0,0,0-1.43-1.46,3.09,3.09,0,0,0-1.64.47l-.26-.75a3.91,3.91,0,0,1,2.07-.56c1.92,0,2.39,1.31,2.39,2.57v2.35a8.62,8.62,0,0,0,.11,1.51Zm-.17-3.21c-1.25,0-2.67.2-2.67,1.42a1,1,0,0,0,1.08,1.09,1.56,1.56,0,0,0,1.52-1.05,1.21,1.21,0,0,0,.07-.37Z"/><path d="M179.23,284.6h1.14v9.23h-1.14Z"/><path d="M183.57,285.77a.71.71,0,0,1-1.42,0,.7.7,0,0,1,.72-.71A.67.67,0,0,1,183.57,285.77Zm-1.27,8.06v-6.29h1.14v6.29Z"/><path d="M184.62,293.17l2.85-3.71c.27-.33.53-.63.82-1v0h-3.41v-.92h4.8v.71l-2.81,3.66c-.26.35-.52.66-.81,1v0h3.68v.91h-5.11Z"/><path d="M194.38,293.83l-.09-.79h0a2.34,2.34,0,0,1-1.92.94,1.79,1.79,0,0,1-1.92-1.81c0-1.52,1.35-2.36,3.78-2.34v-.13a1.3,1.3,0,0,0-1.43-1.46,3.09,3.09,0,0,0-1.64.47l-.26-.75a3.91,3.91,0,0,1,2.07-.56c1.92,0,2.39,1.31,2.39,2.57v2.35a9.8,9.8,0,0,0,.1,1.51Zm-.16-3.21c-1.25,0-2.67.2-2.67,1.42a1,1,0,0,0,1.08,1.09,1.56,1.56,0,0,0,1.52-1.05,1.21,1.21,0,0,0,.07-.37Z"/><path d="M199.92,289.59c0-.8,0-1.45,0-2h1l0,1.08h0a2.47,2.47,0,0,1,2.24-1.22c1.52,0,2.67,1.28,2.67,3.19,0,2.27-1.38,3.39-2.86,3.39a2.22,2.22,0,0,1-1.94-1h0v3.42h-1.13Zm1.13,1.68a3.23,3.23,0,0,0,0,.47,1.77,1.77,0,0,0,1.72,1.34c1.21,0,1.91-1,1.91-2.43,0-1.26-.66-2.34-1.87-2.34a1.83,1.83,0,0,0-1.73,1.41,1.93,1.93,0,0,0-.08.47Z"/><path d="M207.32,289.5c0-.74,0-1.38,0-2h1l0,1.23h.05a1.88,1.88,0,0,1,1.74-1.37,1,1,0,0,1,.32,0v1.07a2.09,2.09,0,0,0-.38,0,1.61,1.61,0,0,0-1.54,1.46,4.15,4.15,0,0,0-.05.54v3.35h-1.13Z"/><path d="M212.89,285.77a.67.67,0,0,1-.72.7.68.68,0,0,1-.69-.7.69.69,0,0,1,.71-.71A.67.67,0,0,1,212.89,285.77Zm-1.27,8.06v-6.29h1.14v6.29Z"/><path d="M214.66,289.24c0-.65,0-1.18,0-1.7h1l.06,1h0a2.31,2.31,0,0,1,2.08-1.18c.87,0,2.22.52,2.22,2.67v3.76h-1.14v-3.62c0-1-.38-1.86-1.46-1.86a1.64,1.64,0,0,0-1.54,1.17,1.66,1.66,0,0,0-.07.53v3.78h-1.15Z"/><path d="M226.36,293.6a4.31,4.31,0,0,1-1.8.36,3,3,0,0,1-3.14-3.21,3.2,3.2,0,0,1,3.38-3.34,3.93,3.93,0,0,1,1.59.32l-.26.89a2.6,2.6,0,0,0-1.33-.3,2.37,2.37,0,0,0,0,4.73,3.35,3.35,0,0,0,1.41-.31Z"/><path d="M229,285.77a.71.71,0,0,1-1.42,0,.69.69,0,0,1,.71-.71A.68.68,0,0,1,229,285.77Zm-1.28,8.06v-6.29h1.15v6.29Z"/><path d="M230.74,289.59c0-.8,0-1.45-.05-2h1l.05,1.08h0A2.46,2.46,0,0,1,234,287.4c1.52,0,2.67,1.28,2.67,3.19,0,2.27-1.38,3.39-2.86,3.39a2.23,2.23,0,0,1-1.94-1h0v3.42h-1.14Zm1.14,1.68a2.26,2.26,0,0,0,.05.47,1.75,1.75,0,0,0,1.71,1.34c1.21,0,1.91-1,1.91-2.43,0-1.26-.66-2.34-1.87-2.34a1.83,1.83,0,0,0-1.73,1.41,1.91,1.91,0,0,0-.07.47Z"/><path d="M241.63,293.83l-.1-.79h0a2.34,2.34,0,0,1-1.92.94,1.79,1.79,0,0,1-1.92-1.81c0-1.52,1.35-2.36,3.78-2.34v-.13a1.3,1.3,0,0,0-1.43-1.46,3.09,3.09,0,0,0-1.64.47l-.26-.75a3.91,3.91,0,0,1,2.07-.56c1.92,0,2.39,1.31,2.39,2.57v2.35a8.62,8.62,0,0,0,.11,1.51Zm-.17-3.21c-1.25,0-2.67.2-2.67,1.42a1,1,0,0,0,1.08,1.09,1.56,1.56,0,0,0,1.52-1.05,1.21,1.21,0,0,0,.07-.37Z"/><path d="M244.41,284.6h1.14v9.23h-1.14Z"/><path d="M247.47,289.24c0-.65,0-1.18-.05-1.7h1l.06,1h0a2.2,2.2,0,0,1,2-1.15,1.85,1.85,0,0,1,1.78,1.26h0a2.49,2.49,0,0,1,.7-.82,2.12,2.12,0,0,1,1.39-.44c.83,0,2.07.54,2.07,2.73v3.7h-1.12v-3.56c0-1.21-.44-1.94-1.37-1.94a1.48,1.48,0,0,0-1.35,1,2,2,0,0,0-.09.57v3.89h-1.12v-3.77c0-1-.44-1.73-1.31-1.73a1.58,1.58,0,0,0-1.42,1.15,1.69,1.69,0,0,0-.09.56v3.79h-1.12Z"/><path d="M259,290.89a2,2,0,0,0,2.16,2.19,4,4,0,0,0,1.74-.33l.2.82A5.11,5.11,0,0,1,261,294a2.92,2.92,0,0,1-3.1-3.17c0-1.9,1.12-3.39,2.95-3.39,2.06,0,2.6,1.8,2.6,3a3.17,3.17,0,0,1,0,.53Zm3.36-.82a1.63,1.63,0,0,0-1.59-1.85,1.88,1.88,0,0,0-1.75,1.85Z"/><path d="M264.83,289.24c0-.65,0-1.18-.05-1.7h1l.07,1h0A2.31,2.31,0,0,1,268,287.4c.87,0,2.23.52,2.23,2.67v3.76H269v-3.62c0-1-.38-1.86-1.45-1.86a1.68,1.68,0,0,0-1.62,1.7v3.78h-1.14Z"/><path d="M273.37,285.73v1.81H275v.87h-1.64v3.39c0,.78.22,1.23.86,1.23a2.44,2.44,0,0,0,.66-.08l.05.86a2.82,2.82,0,0,1-1,.15,1.62,1.62,0,0,1-1.24-.48,2.37,2.37,0,0,1-.44-1.64v-3.43h-1v-.87h1V286Z"/><path d="M276.85,290.89a2,2,0,0,0,2.16,2.19,4,4,0,0,0,1.74-.33l.2.82a5.11,5.11,0,0,1-2.09.39,2.92,2.92,0,0,1-3.1-3.17c0-1.9,1.12-3.39,2.95-3.39,2.06,0,2.6,1.8,2.6,3a3.17,3.17,0,0,1,0,.53Zm3.36-.82a1.63,1.63,0,0,0-1.59-1.85,1.88,1.88,0,0,0-1.75,1.85Z"/><path d="M286.12,290.89a2,2,0,0,0,2.16,2.19,4,4,0,0,0,1.74-.33l.2.82a5.16,5.16,0,0,1-2.1.39,2.92,2.92,0,0,1-3.09-3.17c0-1.9,1.12-3.39,3-3.39,2.06,0,2.6,1.8,2.6,3a3.17,3.17,0,0,1,0,.53Zm3.36-.82a1.63,1.63,0,0,0-1.59-1.85,1.9,1.9,0,0,0-1.76,1.85Z"/><path d="M292,289.24c0-.65,0-1.18-.05-1.7h1l.06,1h0a2.31,2.31,0,0,1,2.08-1.18c.87,0,2.22.52,2.22,2.67v3.76h-1.14v-3.62c0-1-.38-1.86-1.46-1.86a1.63,1.63,0,0,0-1.53,1.17,1.64,1.64,0,0,0-.08.53v3.78H292Z"/><path d="M307.4,284.6v7.61c0,.56,0,1.19.06,1.62h-1l-.05-1.09h0a2.33,2.33,0,0,1-2.14,1.24c-1.53,0-2.7-1.29-2.7-3.2,0-2.1,1.29-3.38,2.83-3.38a2.08,2.08,0,0,1,1.89,1h0V284.6Zm-1.14,5.5a2,2,0,0,0-.05-.48,1.69,1.69,0,0,0-1.65-1.33c-1.19,0-1.89,1-1.89,2.44s.63,2.32,1.86,2.32a1.73,1.73,0,0,0,1.68-1.36,2,2,0,0,0,.05-.5Z"/><path d="M309.94,290.89a2,2,0,0,0,2.16,2.19,4,4,0,0,0,1.74-.33l.19.82a5.11,5.11,0,0,1-2.09.39,2.91,2.91,0,0,1-3.09-3.17c0-1.9,1.11-3.39,2.95-3.39,2.05,0,2.6,1.8,2.6,3a4.82,4.82,0,0,1,0,.53Zm3.35-.82a1.63,1.63,0,0,0-1.58-1.85,1.89,1.89,0,0,0-1.76,1.85Z"/><path d="M315.66,292.66a3,3,0,0,0,1.51.46c.83,0,1.22-.42,1.22-.94s-.33-.84-1.17-1.16c-1.13-.4-1.67-1-1.67-1.78a1.94,1.94,0,0,1,2.17-1.84,3.12,3.12,0,0,1,1.55.39l-.28.83a2.44,2.44,0,0,0-1.29-.37c-.68,0-1.05.39-1.05.86s.37.76,1.19,1.07c1.09.41,1.65,1,1.65,1.9,0,1.1-.86,1.88-2.35,1.88a3.59,3.59,0,0,1-1.77-.43Z"/><path d="M324.45,293.83l-.1-.79h0a2.34,2.34,0,0,1-1.92.94,1.79,1.79,0,0,1-1.92-1.81c0-1.52,1.35-2.36,3.78-2.34v-.13a1.3,1.3,0,0,0-1.43-1.46,3.09,3.09,0,0,0-1.64.47l-.26-.75a3.91,3.91,0,0,1,2.07-.56c1.92,0,2.39,1.31,2.39,2.57v2.35a8.62,8.62,0,0,0,.11,1.51Zm-.17-3.21c-1.25,0-2.67.2-2.67,1.42a1,1,0,0,0,1.08,1.09,1.56,1.56,0,0,0,1.52-1.05,1.21,1.21,0,0,0,.07-.37Z"/><path d="M327.23,289.5c0-.74,0-1.38-.06-2h1l0,1.23h.06A1.88,1.88,0,0,1,330,287.4a1,1,0,0,1,.32,0v1.07a2.13,2.13,0,0,0-.39,0,1.61,1.61,0,0,0-1.53,1.46,2.92,2.92,0,0,0-.05.54v3.35h-1.13Z"/><path d="M331.53,289.5c0-.74,0-1.38,0-2h1l0,1.23h.05a1.89,1.89,0,0,1,1.74-1.37,1.15,1.15,0,0,1,.33,0v1.07a2.29,2.29,0,0,0-.39,0,1.61,1.61,0,0,0-1.54,1.46,4.15,4.15,0,0,0,0,.54v3.35h-1.13Z"/><path d="M341.34,290.63a3.08,3.08,0,0,1-3.13,3.35,3,3,0,0,1-3-3.24,3.07,3.07,0,0,1,3.12-3.34A3,3,0,0,1,341.34,290.63Zm-5,.07c0,1.38.8,2.42,1.91,2.42s1.91-1,1.91-2.45c0-1.06-.53-2.42-1.88-2.42S336.35,289.5,336.35,290.7Z"/><path d="M342.79,284.6h1.14v9.23h-1.14Z"/><path d="M345.86,284.6H347v9.23h-1.14Z"/><path d="M354.62,290.63a3.08,3.08,0,0,1-3.14,3.35,3,3,0,0,1-3-3.24,3.07,3.07,0,0,1,3.12-3.34A3,3,0,0,1,354.62,290.63Zm-5,.07c0,1.38.79,2.42,1.91,2.42s1.91-1,1.91-2.45c0-1.06-.53-2.42-1.89-2.42S349.63,289.5,349.63,290.7Z"/><path d="M364.25,284.6v7.61c0,.56,0,1.19.05,1.62h-1l-.06-1.09h0a2.34,2.34,0,0,1-2.15,1.24c-1.52,0-2.69-1.29-2.69-3.2,0-2.1,1.29-3.38,2.82-3.38a2.11,2.11,0,0,1,1.9,1h0V284.6Zm-1.14,5.5a2,2,0,0,0-.06-.48,1.67,1.67,0,0,0-1.65-1.33c-1.18,0-1.88,1-1.88,2.44s.62,2.32,1.86,2.32a1.72,1.72,0,0,0,1.67-1.36,2,2,0,0,0,.06-.5Z"/><path d="M366.79,290.89a2,2,0,0,0,2.15,2.19,4,4,0,0,0,1.75-.33l.19.82a5.11,5.11,0,0,1-2.09.39,2.92,2.92,0,0,1-3.1-3.17c0-1.9,1.12-3.39,2.95-3.39,2.06,0,2.6,1.8,2.6,3,0,.23,0,.42,0,.53Zm3.35-.82a1.63,1.63,0,0,0-1.59-1.85,1.89,1.89,0,0,0-1.75,1.85Z"/><path d="M375.26,292.66a3,3,0,0,0,1.51.46c.83,0,1.22-.42,1.22-.94s-.32-.84-1.17-1.16c-1.13-.4-1.66-1-1.66-1.78a1.94,1.94,0,0,1,2.17-1.84,3.18,3.18,0,0,1,1.55.39l-.29.83a2.41,2.41,0,0,0-1.29-.37c-.67,0-1.05.39-1.05.86s.38.76,1.2,1.07c1.09.41,1.65,1,1.65,1.9,0,1.1-.86,1.88-2.36,1.88a3.62,3.62,0,0,1-1.77-.43Z"/><path d="M386.26,290.63a3.08,3.08,0,0,1-3.13,3.35,3,3,0,0,1-3-3.24,3.07,3.07,0,0,1,3.12-3.34A3,3,0,0,1,386.26,290.63Zm-5,.07c0,1.38.79,2.42,1.91,2.42s1.91-1,1.91-2.45c0-1.06-.53-2.42-1.89-2.42S381.27,289.5,381.27,290.7Z"/><path d="M387.82,293.83v-5.42h-.89v-.87h.89v-.3a3,3,0,0,1,.73-2.2,2.19,2.19,0,0,1,1.53-.58,2.66,2.66,0,0,1,1,.18l-.15.88a1.84,1.84,0,0,0-.73-.14c-1,0-1.22.86-1.22,1.82v.34h1.52v.87H389v5.42Z"/><path d="M393,285.73v1.81h1.64v.87H393v3.39c0,.78.22,1.23.86,1.23a2.44,2.44,0,0,0,.66-.08l0,.86a2.82,2.82,0,0,1-1,.15,1.62,1.62,0,0,1-1.24-.48,2.37,2.37,0,0,1-.44-1.64v-3.43h-1v-.87h1V286Z"/><path d="M396.51,287.54l.84,3.2c.18.7.35,1.35.46,2h0c.15-.64.35-1.31.56-2l1-3.21h1l1,3.15c.23.75.41,1.41.56,2.05h0a19.84,19.84,0,0,1,.49-2l.89-3.16h1.13l-2,6.29h-1l-1-3c-.22-.7-.4-1.33-.56-2.07h0a19,19,0,0,1-.57,2.08l-1,3h-1l-1.9-6.29Z"/><path d="M409.06,293.83,409,293h0A2.36,2.36,0,0,1,407,294a1.8,1.8,0,0,1-1.93-1.81c0-1.52,1.35-2.36,3.79-2.34v-.13a1.31,1.31,0,0,0-1.44-1.46,3.08,3.08,0,0,0-1.63.47l-.26-.75a3.87,3.87,0,0,1,2.06-.56c1.93,0,2.4,1.31,2.4,2.57v2.35a8.69,8.69,0,0,0,.1,1.51Zm-.17-3.21c-1.25,0-2.66.2-2.66,1.42a1,1,0,0,0,1.07,1.09,1.59,1.59,0,0,0,1.53-1.05,1.19,1.19,0,0,0,.06-.37Z"/><path d="M411.84,289.5c0-.74,0-1.38,0-2h1l0,1.23h.05a1.89,1.89,0,0,1,1.74-1.37,1.15,1.15,0,0,1,.33,0v1.07a2.29,2.29,0,0,0-.39,0,1.61,1.61,0,0,0-1.54,1.46,4.15,4.15,0,0,0,0,.54v3.35h-1.13Z"/><path d="M416.6,290.89a2,2,0,0,0,2.16,2.19,4,4,0,0,0,1.74-.33l.2.82a5.2,5.2,0,0,1-2.1.39,2.92,2.92,0,0,1-3.09-3.17c0-1.9,1.12-3.39,2.95-3.39,2.05,0,2.6,1.8,2.6,3a4.82,4.82,0,0,1,0,.53Zm3.35-.82a1.61,1.61,0,0,0-1.58-1.85,1.89,1.89,0,0,0-1.76,1.85Z"/><path d="M428.72,293.83l-.1-.79h0a2.38,2.38,0,0,1-1.93.94,1.79,1.79,0,0,1-1.92-1.81c0-1.52,1.35-2.36,3.78-2.34v-.13a1.3,1.3,0,0,0-1.43-1.46,3.09,3.09,0,0,0-1.64.47l-.26-.75a3.91,3.91,0,0,1,2.07-.56c1.92,0,2.39,1.31,2.39,2.57v2.35a8.62,8.62,0,0,0,.11,1.51Zm-.17-3.21c-1.25,0-2.67.2-2.67,1.42a1,1,0,0,0,1.08,1.09,1.56,1.56,0,0,0,1.52-1.05,1.21,1.21,0,0,0,.07-.37Z"/><path d="M434.25,289.24c0-.65,0-1.18-.05-1.7h1l.05,1h0a2.18,2.18,0,0,1,2-1.15,1.85,1.85,0,0,1,1.78,1.26h0a2.49,2.49,0,0,1,.7-.82,2.12,2.12,0,0,1,1.39-.44c.83,0,2.07.54,2.07,2.73v3.7h-1.12v-3.56c0-1.21-.44-1.94-1.37-1.94a1.48,1.48,0,0,0-1.35,1,2,2,0,0,0-.09.57v3.89h-1.12v-3.77c0-1-.44-1.73-1.31-1.73a1.56,1.56,0,0,0-1.42,1.15,1.69,1.69,0,0,0-.09.56v3.79h-1.12Z"/><path d="M445.73,290.89a2,2,0,0,0,2.16,2.19,4,4,0,0,0,1.74-.33l.2.82a5.2,5.2,0,0,1-2.1.39,2.92,2.92,0,0,1-3.09-3.17c0-1.9,1.12-3.39,2.95-3.39,2.05,0,2.6,1.8,2.6,3a3.17,3.17,0,0,1,0,.53Zm3.36-.82a1.63,1.63,0,0,0-1.59-1.85,1.9,1.9,0,0,0-1.76,1.85Z"/><path d="M457,284.6v7.61c0,.56,0,1.19,0,1.62h-1l-.06-1.09h0a2.34,2.34,0,0,1-2.15,1.24c-1.52,0-2.69-1.29-2.69-3.2,0-2.1,1.29-3.38,2.82-3.38a2.08,2.08,0,0,1,1.9,1h0V284.6Zm-1.14,5.5a2.61,2.61,0,0,0,0-.48,1.69,1.69,0,0,0-1.66-1.33c-1.18,0-1.88,1-1.88,2.44s.62,2.32,1.86,2.32a1.73,1.73,0,0,0,1.68-1.36,2.65,2.65,0,0,0,0-.5Z"/><path d="M460.21,285.77a.67.67,0,0,1-.72.7.68.68,0,0,1-.69-.7.69.69,0,0,1,.71-.71A.67.67,0,0,1,460.21,285.77Zm-1.27,8.06v-6.29h1.14v6.29Z"/><path d="M467.42,284.6v7.61c0,.56,0,1.19.05,1.62h-1l-.05-1.09h0a2.33,2.33,0,0,1-2.14,1.24c-1.52,0-2.69-1.29-2.69-3.2,0-2.1,1.28-3.38,2.82-3.38a2.11,2.11,0,0,1,1.9,1h0V284.6Zm-1.15,5.5a2,2,0,0,0,0-.48,1.68,1.68,0,0,0-1.65-1.33c-1.18,0-1.89,1-1.89,2.44s.63,2.32,1.86,2.32a1.73,1.73,0,0,0,1.68-1.36,2,2,0,0,0,0-.5Z"/><path d="M472.8,293.83l-.09-.79h0a2.36,2.36,0,0,1-1.93.94,1.79,1.79,0,0,1-1.92-1.81c0-1.52,1.35-2.36,3.78-2.34v-.13a1.3,1.3,0,0,0-1.43-1.46,3.14,3.14,0,0,0-1.64.47l-.26-.75a3.91,3.91,0,0,1,2.07-.56c1.93,0,2.39,1.31,2.39,2.57v2.35a8.62,8.62,0,0,0,.11,1.51Zm-.17-3.21c-1.25,0-2.67.2-2.67,1.42a1,1,0,0,0,1.08,1.09,1.56,1.56,0,0,0,1.52-1.05,1.21,1.21,0,0,0,.07-.37Z"/><path d="M478.75,287.54l1.38,3.72c.14.41.3.91.4,1.28h0c.11-.37.24-.85.4-1.31l1.25-3.69h1.21L481.7,292c-.82,2.16-1.38,3.27-2.16,3.94a3.14,3.14,0,0,1-1.4.75l-.29-1a2.83,2.83,0,0,0,1-.56,3.28,3.28,0,0,0,1-1.27.92.92,0,0,0,.09-.27,1,1,0,0,0-.08-.3l-2.33-5.8Z"/><path d="M490.7,293.83l-.09-.79h0a2.36,2.36,0,0,1-1.93.94,1.79,1.79,0,0,1-1.92-1.81c0-1.52,1.35-2.36,3.78-2.34v-.13a1.3,1.3,0,0,0-1.43-1.46,3.14,3.14,0,0,0-1.64.47l-.26-.75a3.91,3.91,0,0,1,2.07-.56c1.93,0,2.39,1.31,2.39,2.57v2.35a8.62,8.62,0,0,0,.11,1.51Zm-.17-3.21c-1.25,0-2.67.2-2.67,1.42a1,1,0,0,0,1.08,1.09,1.56,1.56,0,0,0,1.52-1.05,1.21,1.21,0,0,0,.07-.37Z"/><path d="M498.74,292.12q0,1,.06,1.71h-1l-.06-1h0a2.38,2.38,0,0,1-2.08,1.17c-1,0-2.17-.55-2.17-2.76v-3.68h1.14V291c0,1.2.37,2,1.41,2a1.67,1.67,0,0,0,1.51-1,1.82,1.82,0,0,0,.1-.59v-3.86h1.14Z"/><path d="M502,285.73v1.81h1.64v.87H502v3.39c0,.78.22,1.23.86,1.23a2.44,2.44,0,0,0,.66-.08l0,.86a2.82,2.82,0,0,1-1,.15,1.62,1.62,0,0,1-1.24-.48,2.37,2.37,0,0,1-.44-1.64v-3.43h-1v-.87h1V286Z"/><path d="M510.56,290.63a3.08,3.08,0,0,1-3.13,3.35,3,3,0,0,1-3-3.24,3.07,3.07,0,0,1,3.12-3.34A3,3,0,0,1,510.56,290.63Zm-5,.07c0,1.38.79,2.42,1.91,2.42s1.91-1,1.91-2.45c0-1.06-.53-2.42-1.88-2.42S505.57,289.5,505.57,290.7Z"/><path d="M512,289.24c0-.65,0-1.18-.05-1.7h1l0,1h0a2.18,2.18,0,0,1,2-1.15,1.85,1.85,0,0,1,1.78,1.26h0a2.49,2.49,0,0,1,.7-.82,2.12,2.12,0,0,1,1.39-.44c.83,0,2.07.54,2.07,2.73v3.7h-1.12v-3.56c0-1.21-.44-1.94-1.37-1.94a1.48,1.48,0,0,0-1.35,1,2,2,0,0,0-.09.57v3.89h-1.12v-3.77c0-1-.44-1.73-1.31-1.73a1.57,1.57,0,0,0-1.42,1.15,1.69,1.69,0,0,0-.09.56v3.79H512Z"/><path d="M526.33,293.83l-.09-.79h0a2.36,2.36,0,0,1-1.92.94,1.8,1.8,0,0,1-1.93-1.81c0-1.52,1.35-2.36,3.78-2.34v-.13a1.3,1.3,0,0,0-1.43-1.46,3.08,3.08,0,0,0-1.63.47l-.26-.75a3.87,3.87,0,0,1,2.06-.56c1.93,0,2.4,1.31,2.4,2.57v2.35a8.69,8.69,0,0,0,.1,1.51Zm-.17-3.21c-1.25,0-2.66.2-2.66,1.42a1,1,0,0,0,1.07,1.09,1.47,1.47,0,0,0,1.59-1.42Z"/><path d="M530.44,285.73v1.81h1.64v.87h-1.64v3.39c0,.78.22,1.23.86,1.23A2.49,2.49,0,0,0,532,293l0,.86a2.82,2.82,0,0,1-1,.15,1.59,1.59,0,0,1-1.24-.48,2.37,2.37,0,0,1-.44-1.64v-3.43h-1v-.87h1V286Z"/><path d="M534.64,285.77a.71.71,0,0,1-1.42,0,.69.69,0,0,1,.71-.71A.68.68,0,0,1,534.64,285.77Zm-1.28,8.06v-6.29h1.15v6.29Z"/><path d="M535.69,293.17l2.85-3.71c.27-.33.53-.63.82-1v0H536v-.92h4.8l0,.71-2.81,3.66a12.37,12.37,0,0,1-.8,1v0h3.68v.91h-5.11Z"/><path d="M545.45,293.83l-.09-.79h0a2.34,2.34,0,0,1-1.92.94,1.8,1.8,0,0,1-1.93-1.81c0-1.52,1.36-2.36,3.79-2.34v-.13a1.3,1.3,0,0,0-1.43-1.46,3.09,3.09,0,0,0-1.64.47l-.26-.75a3.88,3.88,0,0,1,2.07-.56c1.92,0,2.39,1.31,2.39,2.57v2.35a8.69,8.69,0,0,0,.1,1.51Zm-.17-3.21c-1.25,0-2.66.2-2.66,1.42a1,1,0,0,0,1.08,1.09,1.56,1.56,0,0,0,1.52-1.05,1.19,1.19,0,0,0,.06-.37Z"/><path d="M552.72,293.6a4.32,4.32,0,0,1-1.81.36,3,3,0,0,1-3.13-3.21,3.19,3.19,0,0,1,3.38-3.34,3.92,3.92,0,0,1,1.58.32l-.26.89a2.59,2.59,0,0,0-1.32-.3,2.37,2.37,0,0,0,0,4.73,3.26,3.26,0,0,0,1.4-.31Z"/><path d="M555.33,285.77a.71.71,0,0,1-1.42,0,.7.7,0,0,1,.72-.71A.67.67,0,0,1,555.33,285.77Zm-1.27,8.06v-6.29h1.14v6.29Z"/><path d="M562.79,290.63a3.08,3.08,0,0,1-3.13,3.35,3,3,0,0,1-3-3.24,3.07,3.07,0,0,1,3.12-3.34A3,3,0,0,1,562.79,290.63Zm-5,.07c0,1.38.79,2.42,1.91,2.42s1.91-1,1.91-2.45c0-1.06-.53-2.42-1.88-2.42S557.8,289.5,557.8,290.7Zm3.63-5.88-1.59,1.86H559l1.15-1.86Z"/><path d="M564.24,289.24c0-.65,0-1.18-.06-1.7h1l.06,1h0a2.31,2.31,0,0,1,2.08-1.18c.87,0,2.22.52,2.22,2.67v3.76h-1.14v-3.62c0-1-.38-1.86-1.46-1.86a1.62,1.62,0,0,0-1.53,1.17,1.64,1.64,0,0,0-.08.53v3.78h-1.14Z"/><path d="M53.92,300.2v7.61c0,.56,0,1.19.06,1.62H53l-.05-1.09h0a2.33,2.33,0,0,1-2.14,1.24c-1.52,0-2.69-1.29-2.69-3.2,0-2.1,1.28-3.38,2.82-3.38a2.08,2.08,0,0,1,1.89,1h0V300.2Zm-1.14,5.5a2,2,0,0,0-.05-.48,1.68,1.68,0,0,0-1.65-1.33c-1.18,0-1.89,1-1.89,2.44s.63,2.32,1.86,2.32a1.73,1.73,0,0,0,1.68-1.36,2,2,0,0,0,.05-.5Z"/><path d="M56.46,306.49a2,2,0,0,0,2.16,2.19,4,4,0,0,0,1.74-.33l.2.82a5.2,5.2,0,0,1-2.1.39,2.92,2.92,0,0,1-3.09-3.17c0-1.9,1.12-3.39,3-3.39,2,0,2.6,1.8,2.6,3a4.82,4.82,0,0,1,0,.53Zm3.35-.82a1.61,1.61,0,0,0-1.58-1.85,1.89,1.89,0,0,0-1.76,1.85Z"/><path d="M65.09,305.19c0-.8,0-1.45,0-2.05h1l.05,1.08h0A2.47,2.47,0,0,1,68.38,303c1.52,0,2.67,1.28,2.67,3.19,0,2.27-1.38,3.39-2.86,3.39a2.22,2.22,0,0,1-1.94-1h0V312H65.09Zm1.13,1.68a3.23,3.23,0,0,0,0,.47A1.77,1.77,0,0,0,68,308.68c1.21,0,1.91-1,1.91-2.43,0-1.26-.66-2.34-1.87-2.34a1.83,1.83,0,0,0-1.73,1.41,1.93,1.93,0,0,0-.08.47Z"/><path d="M72.49,305.1c0-.74,0-1.37,0-2h1l0,1.23h0A1.88,1.88,0,0,1,75.27,303a1,1,0,0,1,.32,0v1.07a2.09,2.09,0,0,0-.38,0,1.61,1.61,0,0,0-1.54,1.46,4.15,4.15,0,0,0,0,.54v3.35H72.49Z"/><path d="M82.3,306.23a3.08,3.08,0,0,1-3.13,3.35,3,3,0,0,1-3-3.24A3.07,3.07,0,0,1,79.27,303,3,3,0,0,1,82.3,306.23Zm-5,.07c0,1.38.79,2.42,1.91,2.42s1.91-1,1.91-2.45c0-1.06-.53-2.42-1.88-2.42S77.31,305.1,77.31,306.3Z"/><path d="M88.23,309.2a4.32,4.32,0,0,1-1.81.36,3,3,0,0,1-3.13-3.21A3.2,3.2,0,0,1,86.67,303a3.93,3.93,0,0,1,1.59.32l-.26.89a2.63,2.63,0,0,0-1.33-.3,2.18,2.18,0,0,0-2.22,2.38,2.15,2.15,0,0,0,2.18,2.35,3.35,3.35,0,0,0,1.41-.31Z"/><path d="M90.13,306.49a2,2,0,0,0,2.16,2.19,4,4,0,0,0,1.74-.33l.19.82a5.11,5.11,0,0,1-2.09.39A2.91,2.91,0,0,1,89,306.39c0-1.9,1.12-3.39,2.95-3.39,2.05,0,2.6,1.8,2.6,3a4.82,4.82,0,0,1,0,.53Zm3.35-.82a1.62,1.62,0,0,0-1.58-1.85,1.89,1.89,0,0,0-1.76,1.85Z"/><path d="M95.85,308.26a3,3,0,0,0,1.51.46c.83,0,1.22-.42,1.22-.94s-.33-.84-1.17-1.16c-1.13-.4-1.66-1-1.66-1.78A1.93,1.93,0,0,1,97.92,303a3.11,3.11,0,0,1,1.54.39l-.28.83a2.44,2.44,0,0,0-1.29-.37c-.68,0-1,.4-1,.86s.37.76,1.19,1.07c1.1.41,1.65,1,1.65,1.9,0,1.1-.85,1.88-2.35,1.88a3.59,3.59,0,0,1-1.77-.43Z"/><path d="M106.85,306.23a3.09,3.09,0,0,1-3.14,3.35,3,3,0,0,1-3-3.24,3.07,3.07,0,0,1,3.12-3.34A3,3,0,0,1,106.85,306.23Zm-5,.07c0,1.38.8,2.42,1.92,2.42s1.91-1,1.91-2.45c0-1.06-.54-2.42-1.89-2.42S101.85,305.1,101.85,306.3Z"/><path d="M108.13,308.26a3,3,0,0,0,1.51.46c.83,0,1.22-.42,1.22-.94s-.32-.84-1.17-1.16c-1.13-.4-1.66-1-1.66-1.78A1.94,1.94,0,0,1,110.2,303a3.12,3.12,0,0,1,1.55.39l-.29.83a2.41,2.41,0,0,0-1.29-.37c-.67,0-1,.4-1,.86s.38.76,1.2,1.07c1.09.41,1.65,1,1.65,1.9,0,1.1-.86,1.88-2.35,1.88a3.59,3.59,0,0,1-1.77-.43Z"/><path d="M112.55,311a18.12,18.12,0,0,0,.78-3.11l1.28-.13a15.4,15.4,0,0,1-1.24,3.16Z"/><path d="M122.23,309.43l-.1-.79h0a2.34,2.34,0,0,1-1.92.94,1.79,1.79,0,0,1-1.92-1.81c0-1.52,1.35-2.35,3.78-2.34v-.13a1.3,1.3,0,0,0-1.43-1.46,3.09,3.09,0,0,0-1.64.47l-.26-.75a3.91,3.91,0,0,1,2.07-.56c1.92,0,2.39,1.31,2.39,2.57v2.35a8.62,8.62,0,0,0,.11,1.51Zm-.17-3.21c-1.25,0-2.67.2-2.67,1.42a1,1,0,0,0,1.08,1.09,1.56,1.56,0,0,0,1.52-1.05,1.21,1.21,0,0,0,.07-.37Z"/><path d="M125.32,303.14l1.38,3.72c.14.41.3.91.4,1.28h0c.11-.37.24-.85.4-1.31l1.25-3.69H130l-1.72,4.48c-.82,2.16-1.38,3.27-2.16,3.94a3.19,3.19,0,0,1-1.4.75l-.29-1a2.92,2.92,0,0,0,1-.56,3.37,3.37,0,0,0,1-1.27.76.76,0,0,0,.1-.27,1,1,0,0,0-.08-.3l-2.33-5.8Z"/><path d="M136.29,307.72c0,.65,0,1.22.05,1.71h-1l-.07-1h0a2.38,2.38,0,0,1-2.08,1.17c-1,0-2.17-.55-2.17-2.76v-3.68h1.14v3.48c0,1.2.36,2,1.4,2a1.67,1.67,0,0,0,1.51-1,1.59,1.59,0,0,0,.11-.59v-3.86h1.14Z"/><path d="M143.62,300.2v7.61c0,.56,0,1.19,0,1.62h-1l-.05-1.09h0a2.34,2.34,0,0,1-2.15,1.24c-1.52,0-2.69-1.29-2.69-3.2,0-2.1,1.29-3.38,2.82-3.38a2.08,2.08,0,0,1,1.9,1h0V300.2Zm-1.14,5.5a2,2,0,0,0,0-.48,1.69,1.69,0,0,0-1.65-1.33c-1.19,0-1.89,1-1.89,2.44s.62,2.32,1.86,2.32a1.73,1.73,0,0,0,1.68-1.36,2,2,0,0,0,0-.5Z"/><path d="M149,309.43l-.09-.79h0a2.34,2.34,0,0,1-1.92.94,1.79,1.79,0,0,1-1.92-1.81c0-1.52,1.35-2.35,3.78-2.34v-.13a1.3,1.3,0,0,0-1.43-1.46,3.09,3.09,0,0,0-1.64.47l-.26-.75a3.88,3.88,0,0,1,2.07-.56c1.92,0,2.39,1.31,2.39,2.57v2.35a8.62,8.62,0,0,0,.11,1.51Zm-.16-3.21c-1.25,0-2.67.2-2.67,1.42a1,1,0,0,0,1.08,1.09,1.56,1.56,0,0,0,1.52-1.05,1.21,1.21,0,0,0,.07-.37Z"/><path d="M151.79,304.84c0-.65,0-1.18-.06-1.7h1l.06,1h0a2.31,2.31,0,0,1,2.08-1.18c.87,0,2.22.52,2.22,2.67v3.76H156v-3.62c0-1-.38-1.86-1.46-1.86a1.62,1.62,0,0,0-1.53,1.17,1.64,1.64,0,0,0-.08.53v3.78h-1.14Z"/><path d="M164.43,300.2v7.61c0,.56,0,1.19.06,1.62h-1l-.05-1.09h0a2.33,2.33,0,0,1-2.14,1.24c-1.52,0-2.69-1.29-2.69-3.2,0-2.1,1.28-3.38,2.82-3.38a2.08,2.08,0,0,1,1.89,1h0V300.2Zm-1.14,5.5a2,2,0,0,0,0-.48,1.68,1.68,0,0,0-1.65-1.33c-1.18,0-1.89,1-1.89,2.44s.63,2.32,1.86,2.32a1.73,1.73,0,0,0,1.68-1.36,2,2,0,0,0,0-.5Z"/><path d="M172,306.23a3.08,3.08,0,0,1-3.14,3.35,3,3,0,0,1-3-3.24A3.07,3.07,0,0,1,169,303,3,3,0,0,1,172,306.23Zm-5,.07c0,1.38.79,2.42,1.91,2.42s1.91-1,1.91-2.45c0-1.06-.54-2.42-1.89-2.42S167,305.1,167,306.3Z"/><path d="M179.71,309.43l-.09-.79h0a2.36,2.36,0,0,1-1.92.94,1.8,1.8,0,0,1-1.93-1.81c0-1.52,1.35-2.35,3.78-2.34v-.13a1.3,1.3,0,0,0-1.42-1.46,3.09,3.09,0,0,0-1.64.47l-.26-.75a3.87,3.87,0,0,1,2.06-.56c1.93,0,2.4,1.31,2.4,2.57v2.35a8.69,8.69,0,0,0,.1,1.51Zm-.17-3.21c-1.25,0-2.66.2-2.66,1.42a1,1,0,0,0,1.07,1.09,1.47,1.47,0,0,0,1.59-1.42Z"/><path d="M185.88,306.49a2,2,0,0,0,2.16,2.19,4,4,0,0,0,1.74-.33l.2.82a5.11,5.11,0,0,1-2.09.39,2.92,2.92,0,0,1-3.1-3.17c0-1.9,1.12-3.39,3-3.39,2.06,0,2.6,1.8,2.6,3a3.17,3.17,0,0,1,0,.53Zm3.36-.82a1.63,1.63,0,0,0-1.59-1.85,1.89,1.89,0,0,0-1.75,1.85Z"/><path d="M191.76,304.84c0-.65,0-1.18,0-1.7h1l0,1h0a2.18,2.18,0,0,1,2-1.15,1.87,1.87,0,0,1,1.78,1.26h0a2.51,2.51,0,0,1,.71-.82,2.1,2.1,0,0,1,1.39-.44c.83,0,2.06.54,2.06,2.73v3.7h-1.11v-3.56c0-1.21-.45-1.94-1.37-1.94a1.47,1.47,0,0,0-1.35,1,2,2,0,0,0-.09.57v3.89H195.7v-3.77c0-1-.44-1.73-1.31-1.73a1.56,1.56,0,0,0-1.42,1.15,1.46,1.46,0,0,0-.09.56v3.79h-1.12Z"/><path d="M202.6,305.19c0-.8,0-1.45,0-2.05h1l0,1.08h0a2.47,2.47,0,0,1,2.24-1.22c1.52,0,2.67,1.28,2.67,3.19,0,2.27-1.38,3.39-2.86,3.39a2.22,2.22,0,0,1-1.94-1h0V312H202.6Zm1.13,1.68a3.23,3.23,0,0,0,.05.47,1.77,1.77,0,0,0,1.72,1.34c1.21,0,1.91-1,1.91-2.43,0-1.26-.66-2.34-1.87-2.34a1.83,1.83,0,0,0-1.73,1.41,1.93,1.93,0,0,0-.08.47Z"/><path d="M210,305.1c0-.74,0-1.37-.05-2h1l0,1.23h0a1.88,1.88,0,0,1,1.74-1.37,1,1,0,0,1,.32,0v1.07a2.13,2.13,0,0,0-.39,0,1.61,1.61,0,0,0-1.53,1.46,4.15,4.15,0,0,0-.05.54v3.35H210Z"/><path d="M214.76,306.49a2,2,0,0,0,2.15,2.19,4,4,0,0,0,1.75-.33l.19.82a5.11,5.11,0,0,1-2.09.39,2.92,2.92,0,0,1-3.1-3.17c0-1.9,1.12-3.39,3-3.39,2,0,2.59,1.8,2.59,3,0,.23,0,.42,0,.53Zm3.35-.82a1.63,1.63,0,0,0-1.59-1.85,1.89,1.89,0,0,0-1.75,1.85Z"/><path d="M220.48,308.26a3,3,0,0,0,1.5.46c.84,0,1.23-.42,1.23-.94s-.33-.84-1.17-1.16c-1.14-.4-1.67-1-1.67-1.78a1.94,1.94,0,0,1,2.17-1.84,3.12,3.12,0,0,1,1.55.39l-.29.83a2.37,2.37,0,0,0-1.28-.37c-.68,0-1.06.4-1.06.86s.38.76,1.2,1.07c1.09.41,1.65,1,1.65,1.9,0,1.1-.86,1.88-2.35,1.88a3.59,3.59,0,0,1-1.77-.43Z"/><path d="M229.26,309.43l-.09-.79h0a2.34,2.34,0,0,1-1.92.94,1.79,1.79,0,0,1-1.92-1.81c0-1.52,1.35-2.35,3.78-2.34v-.13a1.3,1.3,0,0,0-1.43-1.46,3.09,3.09,0,0,0-1.64.47l-.26-.75a3.88,3.88,0,0,1,2.07-.56c1.92,0,2.39,1.31,2.39,2.57v2.35a9.8,9.8,0,0,0,.1,1.51Zm-.17-3.21c-1.24,0-2.66.2-2.66,1.42a1,1,0,0,0,1.08,1.09,1.56,1.56,0,0,0,1.52-1.05,1.19,1.19,0,0,0,.06-.37Z"/><path d="M231.89,308.26a3,3,0,0,0,1.51.46c.83,0,1.22-.42,1.22-.94s-.33-.84-1.17-1.16c-1.13-.4-1.66-1-1.66-1.78A1.93,1.93,0,0,1,234,303a3.11,3.11,0,0,1,1.54.39l-.28.83a2.44,2.44,0,0,0-1.29-.37c-.68,0-1.05.4-1.05.86s.37.76,1.19,1.07c1.1.41,1.65,1,1.65,1.9,0,1.1-.85,1.88-2.35,1.88a3.62,3.62,0,0,1-1.77-.43Z"/><path d="M243.43,309.43l-.09-.79h0a2.34,2.34,0,0,1-1.92.94,1.79,1.79,0,0,1-1.92-1.81c0-1.52,1.35-2.35,3.78-2.34v-.13a1.3,1.3,0,0,0-1.43-1.46,3.09,3.09,0,0,0-1.64.47l-.26-.75A3.88,3.88,0,0,1,242,303c1.92,0,2.39,1.31,2.39,2.57v2.35a9.8,9.8,0,0,0,.1,1.51Zm-.17-3.21c-1.24,0-2.66.2-2.66,1.42a1,1,0,0,0,1.08,1.09,1.56,1.56,0,0,0,1.52-1.05,1.19,1.19,0,0,0,.06-.37Z"/><path d="M254.67,306.23a3.09,3.09,0,0,1-3.14,3.35,3,3,0,0,1-3-3.24,3.07,3.07,0,0,1,3.12-3.34A3,3,0,0,1,254.67,306.23Zm-5,.07c0,1.38.8,2.42,1.91,2.42s1.92-1,1.92-2.45c0-1.06-.54-2.42-1.89-2.42S249.67,305.1,249.67,306.3Z"/><path d="M256.11,305.19c0-.8,0-1.45-.05-2.05h1l.05,1.08h0A2.47,2.47,0,0,1,259.4,303c1.52,0,2.66,1.28,2.66,3.19,0,2.27-1.38,3.39-2.86,3.39a2.23,2.23,0,0,1-1.94-1h0V312h-1.13Zm1.13,1.68a2.26,2.26,0,0,0,.05.47,1.77,1.77,0,0,0,1.72,1.34c1.21,0,1.91-1,1.91-2.43,0-1.26-.67-2.34-1.87-2.34a1.83,1.83,0,0,0-1.73,1.41,1.93,1.93,0,0,0-.08.47Z"/><path d="M264.88,301.33v1.81h1.64V304h-1.64v3.39c0,.78.22,1.23.86,1.23a2.44,2.44,0,0,0,.66-.08l.06.86a2.93,2.93,0,0,1-1,.15,1.58,1.58,0,0,1-1.23-.48,2.32,2.32,0,0,1-.45-1.64V304h-1v-.87h1v-1.51Z"/><path d="M269.08,301.37a.71.71,0,0,1-1.42,0,.7.7,0,0,1,.72-.71A.67.67,0,0,1,269.08,301.37Zm-1.27,8.06v-6.29H269v6.29Z"/><path d="M270.85,304.84c0-.65,0-1.18-.05-1.7h1l.05,1h0a2.17,2.17,0,0,1,2-1.15,1.88,1.88,0,0,1,1.79,1.26h0a2.61,2.61,0,0,1,.7-.82,2.14,2.14,0,0,1,1.39-.44c.84,0,2.07.54,2.07,2.73v3.7h-1.12v-3.56c0-1.21-.44-1.94-1.36-1.94a1.47,1.47,0,0,0-1.35,1,1.7,1.7,0,0,0-.09.57v3.89h-1.12v-3.77c0-1-.44-1.73-1.32-1.73a1.55,1.55,0,0,0-1.41,1.15,1.46,1.46,0,0,0-.09.56v3.79h-1.12Z"/><path d="M283,301.37a.67.67,0,0,1-.72.7.68.68,0,0,1-.69-.7.69.69,0,0,1,.71-.71A.67.67,0,0,1,283,301.37Zm-1.27,8.06v-6.29h1.14v6.29Z"/><path d="M284,308.77l2.84-3.71.82-1v0h-3.4v-.92h4.79v.71l-2.81,3.66c-.26.35-.52.66-.8,1v0h3.68v.91H284Z"/><path d="M293.78,309.43l-.09-.79h0a2.36,2.36,0,0,1-1.92.94,1.8,1.8,0,0,1-1.93-1.81c0-1.52,1.35-2.35,3.79-2.34v-.13a1.3,1.3,0,0,0-1.43-1.46,3.09,3.09,0,0,0-1.64.47l-.26-.75a3.87,3.87,0,0,1,2.06-.56c1.93,0,2.4,1.31,2.4,2.57v2.35a8.69,8.69,0,0,0,.1,1.51Zm-.17-3.21c-1.25,0-2.66.2-2.66,1.42a1,1,0,0,0,1.07,1.09,1.59,1.59,0,0,0,1.53-1.05,1.19,1.19,0,0,0,.06-.37Z"/><path d="M296.56,305.1c0-.74,0-1.37-.05-2h1l0,1.23h.05a1.89,1.89,0,0,1,1.74-1.37,1.15,1.15,0,0,1,.33,0v1.07a2.29,2.29,0,0,0-.39,0,1.61,1.61,0,0,0-1.54,1.46,4.15,4.15,0,0,0-.05.54v3.35h-1.13Z"/><path d="M305,301.33v1.81h1.63V304H305v3.39c0,.78.22,1.23.85,1.23a2.58,2.58,0,0,0,.67-.08l0,.86a2.85,2.85,0,0,1-1,.15,1.58,1.58,0,0,1-1.23-.48,2.37,2.37,0,0,1-.44-1.64V304h-1v-.87h1v-1.51Z"/><path d="M309.14,301.37a.67.67,0,0,1-.72.7.68.68,0,0,1-.69-.7.69.69,0,0,1,.71-.71A.67.67,0,0,1,309.14,301.37Zm-1.27,8.06v-6.29H309v6.29Z"/><path d="M311.55,306.49a2,2,0,0,0,2.16,2.19,4,4,0,0,0,1.74-.33l.2.82a5.2,5.2,0,0,1-2.1.39,2.92,2.92,0,0,1-3.09-3.17c0-1.9,1.12-3.39,3-3.39,2,0,2.6,1.8,2.6,3a4.82,4.82,0,0,1,0,.53Zm3.35-.82a1.61,1.61,0,0,0-1.58-1.85,1.89,1.89,0,0,0-1.76,1.85Z"/><path d="M317.43,304.84c0-.65,0-1.18-.06-1.7h1l.05,1h0a2.17,2.17,0,0,1,2-1.15,1.85,1.85,0,0,1,1.78,1.26h0a2.49,2.49,0,0,1,.7-.82,2.12,2.12,0,0,1,1.39-.44c.83,0,2.07.54,2.07,2.73v3.7h-1.12v-3.56c0-1.21-.44-1.94-1.36-1.94a1.5,1.5,0,0,0-1.36,1,2,2,0,0,0-.09.57v3.89h-1.12v-3.77c0-1-.44-1.73-1.31-1.73a1.58,1.58,0,0,0-1.42,1.15,1.69,1.69,0,0,0-.09.56v3.79h-1.11Z"/><path d="M328.27,305.19c0-.8,0-1.45,0-2.05h1l.05,1.08h0a2.47,2.47,0,0,1,2.24-1.22c1.52,0,2.66,1.28,2.66,3.19,0,2.27-1.38,3.39-2.86,3.39a2.23,2.23,0,0,1-1.94-1h0V312h-1.13Zm1.13,1.68a2.26,2.26,0,0,0,.05.47,1.77,1.77,0,0,0,1.72,1.34c1.21,0,1.91-1,1.91-2.43,0-1.26-.66-2.34-1.87-2.34a1.83,1.83,0,0,0-1.73,1.41,1.93,1.93,0,0,0-.08.47Z"/><path d="M341.36,306.23a3.08,3.08,0,0,1-3.14,3.35,3,3,0,0,1-3-3.24,3.07,3.07,0,0,1,3.12-3.34A3,3,0,0,1,341.36,306.23Zm-5,.07c0,1.38.79,2.42,1.91,2.42s1.91-1,1.91-2.45c0-1.06-.53-2.42-1.89-2.42S336.37,305.1,336.37,306.3Z"/><path d="M342.64,308.26a3,3,0,0,0,1.51.46c.83,0,1.23-.42,1.23-.94s-.33-.84-1.17-1.16c-1.14-.4-1.67-1-1.67-1.78a1.94,1.94,0,0,1,2.17-1.84,3.12,3.12,0,0,1,1.55.39l-.29.83a2.37,2.37,0,0,0-1.28-.37c-.68,0-1.06.4-1.06.86s.38.76,1.2,1.07c1.09.41,1.65,1,1.65,1.9,0,1.1-.86,1.88-2.35,1.88a3.59,3.59,0,0,1-1.77-.43Z"/><path d="M347.07,311a20.18,20.18,0,0,0,.78-3.11l1.27-.13a15.4,15.4,0,0,1-1.24,3.16Z"/><path d="M353.25,305.1c0-.74,0-1.37-.05-2h1l0,1.23h.05A1.9,1.9,0,0,1,356,303a1,1,0,0,1,.32,0v1.07a2.21,2.21,0,0,0-.39,0,1.59,1.59,0,0,0-1.53,1.46,2.87,2.87,0,0,0-.06.54v3.35h-1.13Z"/><path d="M358,306.49a2,2,0,0,0,2.16,2.19,4,4,0,0,0,1.74-.33l.2.82a5.2,5.2,0,0,1-2.1.39,2.92,2.92,0,0,1-3.09-3.17c0-1.9,1.12-3.39,2.95-3.39,2.05,0,2.6,1.8,2.6,3a4.82,4.82,0,0,1,0,.53Zm3.36-.82a1.63,1.63,0,0,0-1.59-1.85,1.9,1.9,0,0,0-1.76,1.85Z"/><path d="M369.32,300.2v7.61c0,.56,0,1.19.05,1.62h-1l-.06-1.09h0a2.34,2.34,0,0,1-2.15,1.24c-1.52,0-2.69-1.29-2.69-3.2,0-2.1,1.29-3.38,2.82-3.38a2.11,2.11,0,0,1,1.9,1h0V300.2Zm-1.14,5.5a2.61,2.61,0,0,0-.05-.48,1.69,1.69,0,0,0-1.66-1.33c-1.18,0-1.88,1-1.88,2.44s.62,2.32,1.86,2.32a1.73,1.73,0,0,0,1.68-1.36,2.57,2.57,0,0,0,.05-.5Z"/><path d="M376.48,307.72q0,1,.06,1.71h-1l-.06-1h0a2.38,2.38,0,0,1-2.08,1.17c-1,0-2.17-.55-2.17-2.76v-3.68h1.14v3.48c0,1.2.37,2,1.41,2a1.67,1.67,0,0,0,1.51-1,1.82,1.82,0,0,0,.1-.59v-3.86h1.14Z"/><path d="M382.87,309.2a4.32,4.32,0,0,1-1.81.36,3,3,0,0,1-3.13-3.21,3.19,3.19,0,0,1,3.38-3.34,3.92,3.92,0,0,1,1.58.32l-.26.89a2.59,2.59,0,0,0-1.32-.3,2.37,2.37,0,0,0,0,4.73,3.26,3.26,0,0,0,1.4-.31Z"/><path d="M385.48,301.37a.71.71,0,0,1-1.42,0,.7.7,0,0,1,.72-.71A.67.67,0,0,1,385.48,301.37Zm-1.27,8.06v-6.29h1.14v6.29Z"/><path d="M387.25,305.1c0-.74,0-1.37-.05-2h1l0,1.23h.05A1.88,1.88,0,0,1,390,303a1,1,0,0,1,.32,0v1.07a2.13,2.13,0,0,0-.39,0,1.61,1.61,0,0,0-1.53,1.46,4.15,4.15,0,0,0-.05.54v3.35h-1.13Z"/><path d="M394.89,306.49a2,2,0,0,0,2.16,2.19,4,4,0,0,0,1.74-.33l.2.82a5.2,5.2,0,0,1-2.1.39,2.92,2.92,0,0,1-3.09-3.17c0-1.9,1.12-3.39,2.95-3.39,2.05,0,2.6,1.8,2.6,3a3.17,3.17,0,0,1,0,.53Zm3.36-.82a1.63,1.63,0,0,0-1.59-1.85,1.9,1.9,0,0,0-1.76,1.85Z"/><path d="M400.77,305.1c0-.74,0-1.37,0-2h1l0,1.23h.05a1.88,1.88,0,0,1,1.74-1.37,1,1,0,0,1,.32,0v1.07a2.13,2.13,0,0,0-.39,0,1.61,1.61,0,0,0-1.53,1.46,2.92,2.92,0,0,0-.05.54v3.35h-1.13Z"/><path d="M405.07,305.1c0-.74,0-1.37-.05-2h1l0,1.23h.05a1.89,1.89,0,0,1,1.74-1.37,1.15,1.15,0,0,1,.33,0v1.07a2.29,2.29,0,0,0-.39,0,1.61,1.61,0,0,0-1.54,1.46,4.15,4.15,0,0,0-.05.54v3.35h-1.13Z"/><path d="M414.89,306.23a3.09,3.09,0,0,1-3.14,3.35,3,3,0,0,1-3-3.24,3.07,3.07,0,0,1,3.12-3.34A3,3,0,0,1,414.89,306.23Zm-5,.07c0,1.38.8,2.42,1.91,2.42s1.92-1,1.92-2.45c0-1.06-.54-2.42-1.89-2.42S409.89,305.1,409.89,306.3Z"/><path d="M416.33,305.1c0-.74,0-1.37-.05-2h1l0,1.23h.05a1.88,1.88,0,0,1,1.74-1.37,1,1,0,0,1,.32,0v1.07a2.09,2.09,0,0,0-.38,0,1.61,1.61,0,0,0-1.54,1.46,4.15,4.15,0,0,0-.05.54v3.35h-1.13Z"/><path d="M421.09,306.49a2,2,0,0,0,2.15,2.19,4,4,0,0,0,1.75-.33l.19.82a5.11,5.11,0,0,1-2.09.39,2.92,2.92,0,0,1-3.1-3.17c0-1.9,1.12-3.39,3-3.39,2.05,0,2.6,1.8,2.6,3a4.82,4.82,0,0,1,0,.53Zm3.35-.82a1.63,1.63,0,0,0-1.59-1.85,1.89,1.89,0,0,0-1.75,1.85Z"/><path d="M426.81,308.26a3,3,0,0,0,1.5.46c.84,0,1.23-.42,1.23-.94s-.33-.84-1.17-1.16c-1.14-.4-1.67-1-1.67-1.78a1.94,1.94,0,0,1,2.17-1.84,3.12,3.12,0,0,1,1.55.39l-.29.83a2.37,2.37,0,0,0-1.28-.37c-.68,0-1.06.4-1.06.86s.38.76,1.2,1.07c1.09.41,1.65,1,1.65,1.9,0,1.1-.86,1.88-2.35,1.88a3.59,3.59,0,0,1-1.77-.43Z"/><path d="M435.28,303.14l1.38,3.72c.14.41.3.91.4,1.28h0c.12-.37.25-.85.4-1.31l1.25-3.69H440l-1.72,4.48c-.82,2.16-1.38,3.27-2.16,3.94a3.14,3.14,0,0,1-1.4.75l-.29-1a2.83,2.83,0,0,0,1-.56,3.28,3.28,0,0,0,1-1.27.92.92,0,0,0,.09-.27,1,1,0,0,0-.08-.3l-2.33-5.8Z"/><path d="M443.74,304.84c0-.65,0-1.18-.05-1.7h1l.06,1h0a2.18,2.18,0,0,1,2-1.15,1.85,1.85,0,0,1,1.78,1.26h0a2.49,2.49,0,0,1,.7-.82,2.12,2.12,0,0,1,1.39-.44c.83,0,2.07.54,2.07,2.73v3.7h-1.12v-3.56c0-1.21-.44-1.94-1.37-1.94a1.48,1.48,0,0,0-1.35,1,2,2,0,0,0-.09.57v3.89h-1.12v-3.77c0-1-.44-1.73-1.31-1.73a1.57,1.57,0,0,0-1.42,1.15,1.69,1.69,0,0,0-.09.56v3.79h-1.12Z"/><path d="M455.22,306.49a2,2,0,0,0,2.16,2.19,4,4,0,0,0,1.74-.33l.2.82a5.12,5.12,0,0,1-2.1.39,2.92,2.92,0,0,1-3.09-3.17c0-1.9,1.12-3.39,2.95-3.39,2.06,0,2.6,1.8,2.6,3a3.17,3.17,0,0,1,0,.53Zm3.36-.82a1.63,1.63,0,0,0-1.59-1.85,1.88,1.88,0,0,0-1.75,1.85Z"/><path d="M459.56,311.25a1.85,1.85,0,0,0,1.25-.48c.31-.36.43-.86.43-2.36v-5.27h1.15v5.71a3.43,3.43,0,0,1-.76,2.58,2.9,2.9,0,0,1-1.95.72Zm3-9.88a.71.71,0,0,1-1.42,0,.7.7,0,0,1,.73-.71A.68.68,0,0,1,462.52,301.37Z"/><path d="M470,306.23a3.08,3.08,0,0,1-3.13,3.35,3,3,0,0,1-3-3.24,3.07,3.07,0,0,1,3.12-3.34A3,3,0,0,1,470,306.23Zm-5,.07c0,1.38.79,2.42,1.91,2.42s1.91-1,1.91-2.45c0-1.06-.53-2.42-1.88-2.42S465,305.1,465,306.3Z"/><path d="M471.39,305.1c0-.74,0-1.37-.05-2h1l0,1.23h.05a1.9,1.9,0,0,1,1.75-1.37,1,1,0,0,1,.32,0v1.07a2.21,2.21,0,0,0-.39,0,1.6,1.6,0,0,0-1.53,1.46,2.92,2.92,0,0,0-.05.54v3.35h-1.14Z"/><path d="M479.07,309.43l-.1-.79h0a2.34,2.34,0,0,1-1.92.94,1.79,1.79,0,0,1-1.92-1.81c0-1.52,1.35-2.35,3.78-2.34v-.13a1.3,1.3,0,0,0-1.43-1.46,3.09,3.09,0,0,0-1.64.47l-.26-.75a3.91,3.91,0,0,1,2.07-.56c1.92,0,2.39,1.31,2.39,2.57v2.35a8.62,8.62,0,0,0,.11,1.51Zm-.17-3.21c-1.25,0-2.67.2-2.67,1.42a1,1,0,0,0,1.08,1.09,1.56,1.56,0,0,0,1.52-1.05,1.21,1.21,0,0,0,.07-.37Z"/><path d="M481.85,305.1c0-.74,0-1.37-.05-2h1l0,1.23h.05a1.88,1.88,0,0,1,1.74-1.37,1,1,0,0,1,.32,0v1.07a2.13,2.13,0,0,0-.39,0,1.61,1.61,0,0,0-1.53,1.46,2.92,2.92,0,0,0,0,.54v3.35h-1.13Z"/><path d="M489.49,306.49a2,2,0,0,0,2.16,2.19,4,4,0,0,0,1.74-.33l.2.82a5.2,5.2,0,0,1-2.1.39,2.92,2.92,0,0,1-3.09-3.17c0-1.9,1.12-3.39,3-3.39,2,0,2.6,1.8,2.6,3a4.82,4.82,0,0,1,0,.53Zm3.35-.82a1.61,1.61,0,0,0-1.58-1.85,1.89,1.89,0,0,0-1.76,1.85Z"/><path d="M495.37,300.2h1.14v9.23h-1.14Z"/><path d="M505.68,309.2a4.36,4.36,0,0,1-1.81.36,3,3,0,0,1-3.13-3.21,3.19,3.19,0,0,1,3.38-3.34,3.92,3.92,0,0,1,1.58.32l-.26.89a2.59,2.59,0,0,0-1.32-.3,2.37,2.37,0,0,0,0,4.73,3.26,3.26,0,0,0,1.4-.31Z"/><path d="M512.63,306.23a3.08,3.08,0,0,1-3.13,3.35,3,3,0,0,1-3-3.24A3.07,3.07,0,0,1,509.6,303,3,3,0,0,1,512.63,306.23Zm-5,.07c0,1.38.79,2.42,1.91,2.42s1.91-1,1.91-2.45c0-1.06-.53-2.42-1.88-2.42S507.64,305.1,507.64,306.3Z"/><path d="M514.07,304.84c0-.65,0-1.18-.05-1.7h1l.06,1h0a2.31,2.31,0,0,1,2.08-1.18c.87,0,2.22.52,2.22,2.67v3.76h-1.14v-3.62c0-1-.38-1.86-1.46-1.86a1.62,1.62,0,0,0-1.53,1.17,1.41,1.41,0,0,0-.08.53v3.78h-1.15Z"/><path d="M522.61,301.33v1.81h1.64V304h-1.64v3.39c0,.78.23,1.23.86,1.23a2.58,2.58,0,0,0,.67-.08l.05.86a2.85,2.85,0,0,1-1,.15,1.58,1.58,0,0,1-1.23-.48,2.32,2.32,0,0,1-.44-1.64V304h-1v-.87h1v-1.51Z"/><path d="M525.54,305.1c0-.74,0-1.37,0-2h1l0,1.23h.05a1.88,1.88,0,0,1,1.74-1.37,1.15,1.15,0,0,1,.33,0v1.07a2.29,2.29,0,0,0-.39,0,1.61,1.61,0,0,0-1.54,1.46,4.15,4.15,0,0,0-.05.54v3.35h-1.13Z"/><path d="M535.35,306.23a3.08,3.08,0,0,1-3.13,3.35,3,3,0,0,1-3-3.24,3.07,3.07,0,0,1,3.12-3.34A3,3,0,0,1,535.35,306.23Zm-5,.07c0,1.38.8,2.42,1.91,2.42s1.91-1,1.91-2.45c0-1.06-.53-2.42-1.88-2.42S530.36,305.1,530.36,306.3Z"/><path d="M536.8,300.2h1.14v9.23H536.8Z"/><path d="M548.32,306.23a3.09,3.09,0,0,1-3.14,3.35,3,3,0,0,1-3-3.24,3.07,3.07,0,0,1,3.12-3.34A3,3,0,0,1,548.32,306.23Zm-5,.07c0,1.38.8,2.42,1.91,2.42s1.92-1,1.92-2.45c0-1.06-.54-2.42-1.89-2.42S543.32,305.1,543.32,306.3Z"/><path d="M549.76,305.19c0-.8,0-1.45,0-2.05h1l0,1.08h0a2.47,2.47,0,0,1,2.24-1.22c1.52,0,2.66,1.28,2.66,3.19,0,2.27-1.38,3.39-2.86,3.39a2.2,2.2,0,0,1-1.93-1h0V312h-1.13Zm1.13,1.68a3.23,3.23,0,0,0,.05.47,1.77,1.77,0,0,0,1.72,1.34c1.21,0,1.91-1,1.91-2.43,0-1.26-.66-2.34-1.87-2.34a1.83,1.83,0,0,0-1.73,1.41,1.93,1.93,0,0,0-.08.47Z"/><path d="M557.79,306.49a2,2,0,0,0,2.16,2.19,4,4,0,0,0,1.74-.33l.2.82a5.2,5.2,0,0,1-2.1.39,2.92,2.92,0,0,1-3.09-3.17c0-1.9,1.12-3.39,2.95-3.39,2.05,0,2.6,1.8,2.6,3a4.82,4.82,0,0,1,0,.53Zm3.36-.82a1.63,1.63,0,0,0-1.59-1.85,1.9,1.9,0,0,0-1.76,1.85Z"/><path d="M563.67,305.1c0-.74,0-1.37,0-2h1l0,1.23h.05a1.88,1.88,0,0,1,1.74-1.37,1,1,0,0,1,.32,0v1.07a2.13,2.13,0,0,0-.39,0,1.61,1.61,0,0,0-1.53,1.46,2.92,2.92,0,0,0-.05.54v3.35h-1.13Z"/><path d="M571.34,309.43l-.09-.79h0a2.36,2.36,0,0,1-1.93.94,1.79,1.79,0,0,1-1.92-1.81c0-1.52,1.35-2.35,3.78-2.34v-.13a1.3,1.3,0,0,0-1.43-1.46,3.14,3.14,0,0,0-1.64.47l-.26-.75a3.91,3.91,0,0,1,2.07-.56c1.92,0,2.39,1.31,2.39,2.57v2.35a8.62,8.62,0,0,0,.11,1.51Zm-.17-3.21c-1.25,0-2.67.2-2.67,1.42a1,1,0,0,0,1.08,1.09,1.56,1.56,0,0,0,1.52-1.05,1.21,1.21,0,0,0,.07-.37Z"/><path d="M576.77,305.49v.85h-3.21v-.85Z"/><path d="M51.59,316.93v1.81h1.63v.87H51.59V323c0,.78.22,1.23.85,1.23a2.58,2.58,0,0,0,.67-.08l0,.86a2.85,2.85,0,0,1-1,.15,1.58,1.58,0,0,1-1.23-.48,2.37,2.37,0,0,1-.44-1.64v-3.43h-1v-.87h1v-1.51Z"/><path d="M55.78,317a.67.67,0,0,1-.72.7.68.68,0,0,1-.69-.7.69.69,0,0,1,.71-.71A.67.67,0,0,1,55.78,317ZM54.51,325v-6.29h1.14V325Z"/><path d="M58,318.74l1.24,3.54a15.54,15.54,0,0,1,.51,1.61h0c.14-.52.32-1,.53-1.61l1.22-3.54h1.2L60.26,325H59.17l-2.4-6.29Z"/><path d="M69.37,321.83a3.07,3.07,0,0,1-3.13,3.34,3,3,0,0,1-3-3.23,3.07,3.07,0,0,1,3.12-3.34A3,3,0,0,1,69.37,321.83Zm-5,.07c0,1.38.79,2.42,1.91,2.42s1.91-1,1.91-2.45c0-1.06-.53-2.42-1.89-2.42S64.38,320.7,64.38,321.9Z"/><path d="M73.57,320.44c0-.65,0-1.18,0-1.7h1l0,1h0a2.17,2.17,0,0,1,2-1.15,1.88,1.88,0,0,1,1.79,1.26h0a2.61,2.61,0,0,1,.7-.82,2.14,2.14,0,0,1,1.39-.44c.84,0,2.07.54,2.07,2.73V325H81.43v-3.56c0-1.21-.44-1.94-1.36-1.94a1.47,1.47,0,0,0-1.35,1,1.7,1.7,0,0,0-.09.57V325H77.51v-3.77c0-1-.44-1.73-1.32-1.73a1.55,1.55,0,0,0-1.41,1.15,1.46,1.46,0,0,0-.09.56V325H73.57Z"/><path d="M85.05,322.09a2,2,0,0,0,2.16,2.19A4.18,4.18,0,0,0,89,324l.19.82a5.11,5.11,0,0,1-2.09.39A2.91,2.91,0,0,1,84,322c0-1.9,1.11-3.39,3-3.39,2,0,2.6,1.8,2.6,3a4.82,4.82,0,0,1,0,.53Zm3.35-.82a1.63,1.63,0,0,0-1.58-1.85,1.89,1.89,0,0,0-1.76,1.85Z"/><path d="M96.36,315.8v7.61c0,.56,0,1.19,0,1.62h-1l0-1.09h0a2.31,2.31,0,0,1-2.14,1.23c-1.52,0-2.69-1.28-2.69-3.19,0-2.1,1.28-3.38,2.82-3.38a2.11,2.11,0,0,1,1.9,1h0V315.8Zm-1.15,5.5a2,2,0,0,0,0-.48,1.68,1.68,0,0,0-1.65-1.33c-1.18,0-1.88,1-1.88,2.43s.62,2.33,1.85,2.33a1.73,1.73,0,0,0,1.68-1.36,2,2,0,0,0,0-.5Z"/><path d="M99.53,317a.71.71,0,0,1-1.42,0,.7.7,0,0,1,.72-.71A.67.67,0,0,1,99.53,317ZM98.25,325v-6.29H99.4V325Z"/><path d="M104.78,325l-.09-.79h0a2.35,2.35,0,0,1-1.92.93,1.79,1.79,0,0,1-1.93-1.8c0-1.52,1.35-2.36,3.79-2.34v-.13a1.3,1.3,0,0,0-1.43-1.46,3.09,3.09,0,0,0-1.64.47l-.26-.75a3.88,3.88,0,0,1,2.07-.56c1.92,0,2.39,1.31,2.39,2.57v2.35a8.69,8.69,0,0,0,.1,1.51Zm-.17-3.21c-1.25,0-2.66.2-2.66,1.42a1,1,0,0,0,1.08,1.09,1.57,1.57,0,0,0,1.52-1.05,1.19,1.19,0,0,0,.06-.37Z"/><path d="M107.56,320.44c0-.65,0-1.18,0-1.7h1l.07,1h0a2.31,2.31,0,0,1,2.08-1.18c.87,0,2.22.52,2.22,2.67V325h-1.15V321.4c0-1-.37-1.85-1.45-1.85a1.63,1.63,0,0,0-1.54,1.17,1.66,1.66,0,0,0-.07.53V325h-1.15Z"/><path d="M116.1,316.93v1.81h1.64v.87H116.1V323c0,.78.22,1.23.86,1.23a2.44,2.44,0,0,0,.66-.08l.06.86a2.89,2.89,0,0,1-1,.15,1.58,1.58,0,0,1-1.23-.48A2.32,2.32,0,0,1,115,323v-3.43h-1v-.87h1v-1.51Z"/><path d="M119.59,322.09a2,2,0,0,0,2.16,2.19,4.18,4.18,0,0,0,1.74-.33l.19.82a5.11,5.11,0,0,1-2.09.39A2.91,2.91,0,0,1,118.5,322c0-1.9,1.11-3.39,3-3.39,2,0,2.6,1.8,2.6,3a4.82,4.82,0,0,1,0,.53Zm3.35-.82a1.63,1.63,0,0,0-1.58-1.85,1.89,1.89,0,0,0-1.76,1.85Z"/><path d="M128.06,323.86a3,3,0,0,0,1.51.46c.83,0,1.22-.42,1.22-.94s-.32-.84-1.17-1.16c-1.13-.4-1.66-1-1.66-1.78a1.94,1.94,0,0,1,2.17-1.84,3.12,3.12,0,0,1,1.55.39l-.29.83a2.41,2.41,0,0,0-1.29-.37c-.67,0-1,.39-1,.86s.38.76,1.2,1.07c1.09.41,1.65,1,1.65,1.9,0,1.1-.86,1.88-2.35,1.88a3.59,3.59,0,0,1-1.77-.43Z"/><path d="M139.06,321.83a3.07,3.07,0,0,1-3.13,3.34,3,3,0,0,1-3-3.23A3.07,3.07,0,0,1,136,318.6,3,3,0,0,1,139.06,321.83Zm-5,.07c0,1.38.79,2.42,1.91,2.42s1.91-1,1.91-2.45c0-1.06-.53-2.42-1.89-2.42S134.07,320.7,134.07,321.9Z"/><path d="M140.5,315.8h1.15V325H140.5Z"/><path d="M148.84,323.32c0,.65,0,1.22,0,1.71h-1l-.06-1h0a2.36,2.36,0,0,1-2.08,1.17c-1,0-2.17-.54-2.17-2.75v-3.68h1.15v3.48c0,1.2.36,2,1.4,2a1.67,1.67,0,0,0,1.51-1,1.82,1.82,0,0,0,.1-.59v-3.86h1.15Z"/><path d="M155.22,324.8a4.32,4.32,0,0,1-1.81.36,3,3,0,0,1-3.13-3.21,3.2,3.2,0,0,1,3.38-3.34,4,4,0,0,1,1.59.32l-.26.89a2.66,2.66,0,0,0-1.33-.3,2.18,2.18,0,0,0-2.22,2.38,2.15,2.15,0,0,0,2.18,2.35,3.26,3.26,0,0,0,1.4-.31Z"/><path d="M157.83,317a.71.71,0,0,1-1.41,0,.69.69,0,0,1,.71-.71A.67.67,0,0,1,157.83,317ZM156.56,325v-6.29h1.14V325Z"/><path d="M165.3,321.83a3.08,3.08,0,0,1-3.14,3.34,3,3,0,0,1-3-3.23,3.07,3.07,0,0,1,3.12-3.34A3,3,0,0,1,165.3,321.83Zm-5,.07c0,1.38.8,2.42,1.91,2.42s1.92-1,1.92-2.45c0-1.06-.54-2.42-1.89-2.42S160.3,320.7,160.3,321.9Z"/><path d="M166.74,320.44c0-.65,0-1.18-.05-1.7h1l.06,1h0a2.31,2.31,0,0,1,2.08-1.18c.87,0,2.22.52,2.22,2.67V325H171V321.4c0-1-.38-1.85-1.46-1.85a1.62,1.62,0,0,0-1.53,1.17,1.64,1.64,0,0,0-.08.53V325h-1.14Z"/><path d="M174.59,322.09a2,2,0,0,0,2.16,2.19,4.15,4.15,0,0,0,1.74-.33l.19.82a5.11,5.11,0,0,1-2.09.39A2.91,2.91,0,0,1,173.5,322c0-1.9,1.12-3.39,2.95-3.39,2.05,0,2.6,1.8,2.6,3a4.82,4.82,0,0,1,0,.53Zm3.35-.82a1.62,1.62,0,0,0-1.58-1.85,1.89,1.89,0,0,0-1.76,1.85Z"/><path d="M180.31,323.86a3,3,0,0,0,1.51.46c.83,0,1.22-.42,1.22-.94s-.33-.84-1.17-1.16c-1.13-.4-1.66-1-1.66-1.78a1.93,1.93,0,0,1,2.17-1.84,3.11,3.11,0,0,1,1.54.39l-.28.83a2.44,2.44,0,0,0-1.29-.37c-.68,0-1,.39-1,.86s.37.76,1.19,1.07c1.1.41,1.65,1,1.65,1.9,0,1.1-.85,1.88-2.35,1.88a3.59,3.59,0,0,1-1.77-.43Z"/><path d="M193.8,315.8v7.61c0,.56,0,1.19,0,1.62h-1l-.05-1.09h0a2.33,2.33,0,0,1-2.15,1.23c-1.52,0-2.69-1.28-2.69-3.19,0-2.1,1.29-3.38,2.82-3.38a2.08,2.08,0,0,1,1.9,1h0V315.8Zm-1.14,5.5a2,2,0,0,0,0-.48,1.69,1.69,0,0,0-1.65-1.33c-1.19,0-1.89,1-1.89,2.43s.62,2.33,1.86,2.33a1.73,1.73,0,0,0,1.68-1.36,2,2,0,0,0,0-.5Z"/><path d="M197,317a.67.67,0,0,1-.72.7.68.68,0,0,1-.69-.7.69.69,0,0,1,.71-.71A.67.67,0,0,1,197,317ZM195.7,325v-6.29h1.14V325Z"/><path d="M204.16,318.74c0,.45,0,1,0,1.73v3.65a3.57,3.57,0,0,1-.9,2.87,3.28,3.28,0,0,1-2.28.76,4.06,4.06,0,0,1-2.1-.52l.29-.87a3.54,3.54,0,0,0,1.84.49c1.17,0,2-.61,2-2.2V324h0a2.25,2.25,0,0,1-2,1.06,2.82,2.82,0,0,1-2.67-3.07c0-2.13,1.39-3.34,2.83-3.34a2.09,2.09,0,0,1,2,1.09h0l0-.95ZM203,321.22a1.73,1.73,0,0,0-.06-.52,1.66,1.66,0,0,0-1.6-1.21c-1.1,0-1.88.93-1.88,2.38,0,1.24.63,2.26,1.86,2.26a1.68,1.68,0,0,0,1.59-1.17,2.1,2.1,0,0,0,.09-.61Z"/><path d="M207.2,317a.67.67,0,0,1-.72.7.68.68,0,0,1-.69-.7.69.69,0,0,1,.71-.71A.67.67,0,0,1,207.2,317ZM205.93,325v-6.29h1.14V325Z"/><path d="M210.35,316.93v1.81H212v.87h-1.64V323c0,.78.22,1.23.86,1.23a2.44,2.44,0,0,0,.66-.08l0,.86a2.82,2.82,0,0,1-1,.15,1.62,1.62,0,0,1-1.24-.48,2.37,2.37,0,0,1-.44-1.64v-3.43h-1v-.87h1v-1.51Z"/><path d="M216.76,325l-.09-.79h0a2.35,2.35,0,0,1-1.92.93,1.79,1.79,0,0,1-1.93-1.8c0-1.52,1.35-2.36,3.78-2.34v-.13a1.3,1.3,0,0,0-1.43-1.46,3.08,3.08,0,0,0-1.63.47l-.26-.75a3.87,3.87,0,0,1,2.06-.56c1.93,0,2.4,1.31,2.4,2.57v2.35a8.69,8.69,0,0,0,.1,1.51Zm-.17-3.21c-1.25,0-2.67.2-2.67,1.42a1,1,0,0,0,1.08,1.09,1.47,1.47,0,0,0,1.59-1.42Z"/><path d="M219.54,315.8h1.14V325h-1.14Z"/><path d="M223.25,322.09a2,2,0,0,0,2.15,2.19,4.2,4.2,0,0,0,1.75-.33l.19.82a5.11,5.11,0,0,1-2.09.39,2.92,2.92,0,0,1-3.1-3.17c0-1.9,1.12-3.39,3-3.39,2,0,2.6,1.8,2.6,3a4.82,4.82,0,0,1,0,.53Zm3.35-.82a1.63,1.63,0,0,0-1.59-1.85,1.89,1.89,0,0,0-1.75,1.85Z"/><path d="M229,323.86a3,3,0,0,0,1.5.46c.84,0,1.23-.42,1.23-.94s-.33-.84-1.17-1.16c-1.14-.4-1.67-1-1.67-1.78A1.94,1.94,0,0,1,231,318.6a3.12,3.12,0,0,1,1.55.39l-.29.83a2.37,2.37,0,0,0-1.28-.37c-.68,0-1.06.39-1.06.86s.38.76,1.2,1.07c1.09.41,1.65,1,1.65,1.9,0,1.1-.86,1.88-2.35,1.88a3.59,3.59,0,0,1-1.77-.43Z"/><path d="M233.85,324.36a.77.77,0,0,1,.78-.82.82.82,0,0,1,0,1.63A.77.77,0,0,1,233.85,324.36Z"/><path d="M245.74,324.75a5.81,5.81,0,0,1-2.32.41,4.09,4.09,0,0,1-4.33-4.43,4.36,4.36,0,0,1,4.58-4.6,4.65,4.65,0,0,1,2.08.39l-.27.92a4.1,4.1,0,0,0-1.77-.36c-2.06,0-3.42,1.31-3.42,3.61a3.18,3.18,0,0,0,3.37,3.52,4.53,4.53,0,0,0,1.84-.36Z"/><path d="M252.67,321.83a3.08,3.08,0,0,1-3.14,3.34,3,3,0,0,1-3-3.23,3.07,3.07,0,0,1,3.12-3.34A3,3,0,0,1,252.67,321.83Zm-5,.07c0,1.38.8,2.42,1.92,2.42s1.91-1,1.91-2.45c0-1.06-.54-2.42-1.89-2.42S247.67,320.7,247.67,321.9Z"/><path d="M254.11,320.44c0-.65,0-1.18-.05-1.7h1l.07,1h0a2.31,2.31,0,0,1,2.08-1.18c.87,0,2.22.52,2.22,2.67V325h-1.14V321.4c0-1-.38-1.85-1.46-1.85a1.63,1.63,0,0,0-1.53,1.17,1.64,1.64,0,0,0-.08.53V325h-1.14Z"/><path d="M262.65,316.93v1.81h1.64v.87h-1.64V323c0,.78.22,1.23.86,1.23a2.44,2.44,0,0,0,.66-.08l.05.86a2.82,2.82,0,0,1-1,.15,1.6,1.6,0,0,1-1.24-.48,2.37,2.37,0,0,1-.44-1.64v-3.43h-1v-.87h1v-1.51Z"/><path d="M269.06,325l-.09-.79h0a2.36,2.36,0,0,1-1.93.93,1.79,1.79,0,0,1-1.92-1.8c0-1.52,1.35-2.36,3.78-2.34v-.13a1.3,1.3,0,0,0-1.43-1.46,3.14,3.14,0,0,0-1.64.47l-.26-.75a3.91,3.91,0,0,1,2.07-.56c1.93,0,2.39,1.31,2.39,2.57v2.35a8.62,8.62,0,0,0,.11,1.51Zm-.17-3.21c-1.25,0-2.67.2-2.67,1.42a1,1,0,0,0,1.08,1.09,1.56,1.56,0,0,0,1.52-1.05,1.21,1.21,0,0,0,.07-.37Z"/><path d="M271.84,320.44c0-.65,0-1.18,0-1.7h1l0,1h0a2.17,2.17,0,0,1,2-1.15,1.88,1.88,0,0,1,1.79,1.26h0a2.61,2.61,0,0,1,.7-.82,2.14,2.14,0,0,1,1.39-.44c.84,0,2.07.54,2.07,2.73V325H279.7v-3.56c0-1.21-.44-1.94-1.36-1.94a1.47,1.47,0,0,0-1.35,1,1.7,1.7,0,0,0-.09.57V325h-1.12v-3.77c0-1-.44-1.73-1.32-1.73a1.55,1.55,0,0,0-1.41,1.15,1.46,1.46,0,0,0-.09.56V325h-1.12Z"/><path d="M288.38,321.83a3.08,3.08,0,0,1-3.14,3.34,3,3,0,0,1-3-3.23,3.07,3.07,0,0,1,3.12-3.34A3,3,0,0,1,288.38,321.83Zm-5,.07c0,1.38.8,2.42,1.91,2.42s1.92-1,1.92-2.45c0-1.06-.54-2.42-1.89-2.42S283.38,320.7,283.38,321.9Z"/><path d="M289.66,323.86a3,3,0,0,0,1.51.46c.83,0,1.22-.42,1.22-.94s-.32-.84-1.17-1.16c-1.13-.4-1.66-1-1.66-1.78a1.94,1.94,0,0,1,2.17-1.84,3.15,3.15,0,0,1,1.55.39l-.29.83a2.41,2.41,0,0,0-1.29-.37c-.67,0-1.05.39-1.05.86s.38.76,1.2,1.07c1.09.41,1.65,1,1.65,1.9,0,1.1-.86,1.88-2.36,1.88a3.55,3.55,0,0,1-1.76-.43Z"/><path d="M302.21,324.8a4.32,4.32,0,0,1-1.81.36,3,3,0,0,1-3.13-3.21,3.19,3.19,0,0,1,3.38-3.34,3.92,3.92,0,0,1,1.58.32l-.26.89a2.59,2.59,0,0,0-1.32-.3,2.37,2.37,0,0,0,0,4.73,3.26,3.26,0,0,0,1.4-.31Z"/><path d="M309.16,321.83a3.07,3.07,0,0,1-3.13,3.34,3,3,0,0,1-3-3.23,3.07,3.07,0,0,1,3.12-3.34A3,3,0,0,1,309.16,321.83Zm-5,.07c0,1.38.79,2.42,1.91,2.42s1.91-1,1.91-2.45c0-1.06-.53-2.42-1.88-2.42S304.17,320.7,304.17,321.9Z"/><path d="M310.61,320.44c0-.65,0-1.18-.06-1.7h1l.06,1h0a2.31,2.31,0,0,1,2.08-1.18c.87,0,2.22.52,2.22,2.67V325h-1.14V321.4c0-1-.38-1.85-1.46-1.85a1.62,1.62,0,0,0-1.53,1.17,1.64,1.64,0,0,0-.08.53V325h-1.14Z"/><path d="M320.58,320.44c0-.65,0-1.18-.06-1.7h1l.05,1h0a2.17,2.17,0,0,1,2-1.15,1.85,1.85,0,0,1,1.78,1.26h0a2.49,2.49,0,0,1,.7-.82,2.12,2.12,0,0,1,1.39-.44c.83,0,2.07.54,2.07,2.73V325h-1.12v-3.56c0-1.21-.44-1.94-1.36-1.94a1.5,1.5,0,0,0-1.36,1,2,2,0,0,0-.09.57V325h-1.12v-3.77c0-1-.44-1.73-1.31-1.73a1.55,1.55,0,0,0-1.41,1.15,1.47,1.47,0,0,0-.1.56V325h-1.11Z"/><path d="M334.9,325l-.09-.79h0a2.34,2.34,0,0,1-1.92.93,1.79,1.79,0,0,1-1.93-1.8c0-1.52,1.36-2.36,3.79-2.34v-.13a1.3,1.3,0,0,0-1.43-1.46,3.09,3.09,0,0,0-1.64.47l-.26-.75a3.88,3.88,0,0,1,2.07-.56c1.92,0,2.39,1.31,2.39,2.57v2.35a8.69,8.69,0,0,0,.1,1.51Zm-.17-3.21c-1.24,0-2.66.2-2.66,1.42a1,1,0,0,0,1.08,1.09,1.56,1.56,0,0,0,1.52-1.05,1.19,1.19,0,0,0,.06-.37Zm.57-5.8-1.58,1.86h-.82L334,316Z"/><path d="M337.53,323.86a3,3,0,0,0,1.51.46c.83,0,1.22-.42,1.22-.94s-.33-.84-1.17-1.16c-1.13-.4-1.67-1-1.67-1.78a1.94,1.94,0,0,1,2.17-1.84,3.12,3.12,0,0,1,1.55.39l-.28.83a2.44,2.44,0,0,0-1.29-.37c-.68,0-1.05.39-1.05.86s.37.76,1.19,1.07c1.09.41,1.65,1,1.65,1.9,0,1.1-.86,1.88-2.35,1.88a3.59,3.59,0,0,1-1.77-.43Z"/><path d="M351,315.8v7.61c0,.56,0,1.19.05,1.62h-1l-.05-1.09h0a2.33,2.33,0,0,1-2.15,1.23c-1.52,0-2.69-1.28-2.69-3.19,0-2.1,1.29-3.38,2.82-3.38a2.08,2.08,0,0,1,1.9,1h0V315.8Zm-1.14,5.5a2,2,0,0,0-.05-.48,1.69,1.69,0,0,0-1.66-1.33c-1.18,0-1.88,1-1.88,2.43s.62,2.33,1.86,2.33a1.73,1.73,0,0,0,1.68-1.36,2,2,0,0,0,.05-.5Z"/><path d="M353.56,322.09a2,2,0,0,0,2.15,2.19,4.2,4.2,0,0,0,1.75-.33l.19.82a5.11,5.11,0,0,1-2.09.39,2.92,2.92,0,0,1-3.1-3.17c0-1.9,1.12-3.39,3-3.39,2.05,0,2.6,1.8,2.6,3a4.82,4.82,0,0,1,0,.53Zm3.35-.82a1.63,1.63,0,0,0-1.58-1.85,1.89,1.89,0,0,0-1.76,1.85Z"/><path d="M364.31,317.65h0l-1.47.79-.22-.87,1.85-1h1V325h-1.1Z"/><path d="M371,317.65h0l-1.47.79-.22-.87,1.85-1h1V325H371Z"/><path d="M381.77,325l-.1-.79h0a2.36,2.36,0,0,1-1.93.93,1.79,1.79,0,0,1-1.92-1.8c0-1.52,1.35-2.36,3.78-2.34v-.13a1.3,1.3,0,0,0-1.43-1.46,3.14,3.14,0,0,0-1.64.47l-.26-.75a3.91,3.91,0,0,1,2.07-.56c1.92,0,2.39,1.31,2.39,2.57v2.35a8.62,8.62,0,0,0,.11,1.51Zm-.17-3.21c-1.25,0-2.67.2-2.67,1.42a1,1,0,0,0,1.08,1.09,1.56,1.56,0,0,0,1.52-1.05,1.21,1.21,0,0,0,.07-.37Z"/><path d="M384.55,320.44c0-.65,0-1.18-.05-1.7h1l.07,1h0a2.31,2.31,0,0,1,2.08-1.18c.87,0,2.22.52,2.22,2.67V325h-1.14V321.4c0-1-.38-1.85-1.46-1.85a1.62,1.62,0,0,0-1.53,1.17,1.64,1.64,0,0,0-.08.53V325h-1.14Zm1.06-2.78c0-.84.33-1.35.89-1.35a1.68,1.68,0,0,1,.8.28,1.3,1.3,0,0,0,.55.23c.21,0,.34-.12.36-.56h.62c0,.87-.29,1.31-.9,1.31a1.83,1.83,0,0,1-.8-.26,1.07,1.07,0,0,0-.55-.23c-.21,0-.32.22-.34.58Z"/><path d="M397.46,321.83a3.08,3.08,0,0,1-3.14,3.34,3,3,0,0,1-3-3.23,3.07,3.07,0,0,1,3.12-3.34A3,3,0,0,1,397.46,321.83Zm-5,.07c0,1.38.8,2.42,1.92,2.42s1.91-1,1.91-2.45c0-1.06-.54-2.42-1.89-2.42S392.46,320.7,392.46,321.9Z"/><path d="M398.74,323.86a3,3,0,0,0,1.51.46c.83,0,1.22-.42,1.22-.94s-.32-.84-1.17-1.16c-1.13-.4-1.66-1-1.66-1.78a1.94,1.94,0,0,1,2.17-1.84,3.12,3.12,0,0,1,1.55.39l-.29.83a2.41,2.41,0,0,0-1.29-.37c-.67,0-1,.39-1,.86s.38.76,1.2,1.07c1.09.41,1.65,1,1.65,1.9,0,1.1-.86,1.88-2.35,1.88a3.59,3.59,0,0,1-1.77-.43Z"/><path d="M412.24,315.8v7.61c0,.56,0,1.19.05,1.62h-1l-.05-1.09h0a2.31,2.31,0,0,1-2.14,1.23c-1.52,0-2.69-1.28-2.69-3.19,0-2.1,1.28-3.38,2.82-3.38a2.11,2.11,0,0,1,1.9,1h0V315.8Zm-1.15,5.5a2,2,0,0,0,0-.48,1.68,1.68,0,0,0-1.65-1.33c-1.18,0-1.89,1-1.89,2.43s.63,2.33,1.86,2.33a1.73,1.73,0,0,0,1.68-1.36,2,2,0,0,0,0-.5Z"/><path d="M414.77,322.09a2,2,0,0,0,2.16,2.19,4.15,4.15,0,0,0,1.74-.33l.2.82a5.2,5.2,0,0,1-2.1.39,2.92,2.92,0,0,1-3.09-3.17c0-1.9,1.12-3.39,2.95-3.39,2.05,0,2.6,1.8,2.6,3a3.17,3.17,0,0,1,0,.53Zm3.36-.82a1.63,1.63,0,0,0-1.59-1.85,1.9,1.9,0,0,0-1.76,1.85Z"/><path d="M424,322.09a2,2,0,0,0,2.16,2.19,4.15,4.15,0,0,0,1.74-.33l.2.82a5.2,5.2,0,0,1-2.1.39A2.92,2.92,0,0,1,423,322c0-1.9,1.12-3.39,2.95-3.39,2.05,0,2.6,1.8,2.6,3a4.82,4.82,0,0,1,0,.53Zm3.35-.82a1.61,1.61,0,0,0-1.58-1.85,1.89,1.89,0,0,0-1.76,1.85Z"/><path d="M430.41,318.74l.9,1.35c.23.35.43.68.63,1h0c.21-.38.42-.7.63-1l.88-1.34h1.24l-2.15,3,2.21,3.25h-1.3l-.92-1.42c-.25-.36-.46-.71-.68-1.09h0c-.21.38-.43.72-.67,1.09l-.91,1.42H429l2.24-3.21-2.13-3.08Z"/><path d="M435.9,320.79c0-.8,0-1.45-.06-2.05h1l.05,1.08h0a2.47,2.47,0,0,1,2.23-1.22c1.53,0,2.67,1.28,2.67,3.19,0,2.27-1.38,3.38-2.86,3.38a2.22,2.22,0,0,1-1.94-1h0v3.42H435.9Zm1.13,1.68a2.26,2.26,0,0,0,.05.47,1.77,1.77,0,0,0,1.71,1.34c1.21,0,1.92-1,1.92-2.43,0-1.26-.67-2.34-1.88-2.34a1.84,1.84,0,0,0-1.73,1.41,2.54,2.54,0,0,0-.07.47Z"/><path d="M443.93,322.09a2,2,0,0,0,2.16,2.19,4.15,4.15,0,0,0,1.74-.33l.19.82a5.11,5.11,0,0,1-2.09.39,2.91,2.91,0,0,1-3.09-3.17c0-1.9,1.12-3.39,3-3.39,2,0,2.6,1.8,2.6,3a4.82,4.82,0,0,1,0,.53Zm3.35-.82a1.62,1.62,0,0,0-1.58-1.85,1.89,1.89,0,0,0-1.76,1.85Z"/><path d="M449.8,320.7c0-.74,0-1.38-.05-2h1l0,1.23h0a1.9,1.9,0,0,1,1.75-1.37,1,1,0,0,1,.32,0v1.07a2.13,2.13,0,0,0-.39,0,1.6,1.6,0,0,0-1.53,1.46,2.92,2.92,0,0,0-.05.54V325H449.8Z"/><path d="M455.38,317a.71.71,0,0,1-1.42,0,.7.7,0,0,1,.72-.71A.67.67,0,0,1,455.38,317ZM454.11,325v-6.29h1.14V325Z"/><path d="M457.79,322.09a2,2,0,0,0,2.15,2.19,4.2,4.2,0,0,0,1.75-.33l.19.82a5.11,5.11,0,0,1-2.09.39,2.92,2.92,0,0,1-3.1-3.17c0-1.9,1.12-3.39,3-3.39,2.05,0,2.6,1.8,2.6,3a4.82,4.82,0,0,1,0,.53Zm3.35-.82a1.63,1.63,0,0,0-1.59-1.85,1.89,1.89,0,0,0-1.75,1.85Z"/><path d="M463.66,320.44c0-.65,0-1.18-.05-1.7h1l.07,1h0a2.32,2.32,0,0,1,2.09-1.18c.87,0,2.22.52,2.22,2.67V325h-1.15V321.4c0-1-.37-1.85-1.45-1.85a1.63,1.63,0,0,0-1.54,1.17,1.66,1.66,0,0,0-.07.53V325h-1.15Z"/><path d="M475.36,324.8a4.32,4.32,0,0,1-1.81.36,3,3,0,0,1-3.13-3.21,3.2,3.2,0,0,1,3.38-3.34,3.93,3.93,0,0,1,1.59.32l-.26.89a2.63,2.63,0,0,0-1.33-.3,2.18,2.18,0,0,0-2.22,2.38,2.15,2.15,0,0,0,2.18,2.35,3.35,3.35,0,0,0,1.41-.31Z"/><path d="M478,317a.67.67,0,0,1-.72.7.68.68,0,0,1-.69-.7.69.69,0,0,1,.71-.71A.67.67,0,0,1,478,317ZM476.7,325v-6.29h1.14V325Z"/><path d="M483.23,325l-.09-.79h0a2.36,2.36,0,0,1-1.93.93,1.79,1.79,0,0,1-1.92-1.8c0-1.52,1.35-2.36,3.78-2.34v-.13a1.3,1.3,0,0,0-1.43-1.46,3.14,3.14,0,0,0-1.64.47l-.26-.75a3.91,3.91,0,0,1,2.07-.56c1.93,0,2.39,1.31,2.39,2.57v2.35a8.62,8.62,0,0,0,.11,1.51Zm-.17-3.21c-1.25,0-2.67.2-2.67,1.42a1,1,0,0,0,1.08,1.09,1.56,1.56,0,0,0,1.52-1.05,1.21,1.21,0,0,0,.07-.37Z"/><path d="M490,317a.71.71,0,0,1-1.42,0,.7.7,0,0,1,.72-.71A.67.67,0,0,1,490,317ZM488.76,325v-6.29h1.15V325Z"/><path d="M491.81,320.44c0-.65,0-1.18-.06-1.7h1l.05,1h0a2.17,2.17,0,0,1,2-1.15,1.85,1.85,0,0,1,1.78,1.26h0a2.49,2.49,0,0,1,.7-.82,2.14,2.14,0,0,1,1.39-.44c.83,0,2.07.54,2.07,2.73V325h-1.12v-3.56c0-1.21-.44-1.94-1.36-1.94a1.47,1.47,0,0,0-1.35,1,1.7,1.7,0,0,0-.1.57V325h-1.11v-3.77c0-1-.45-1.73-1.32-1.73a1.55,1.55,0,0,0-1.41,1.15,1.47,1.47,0,0,0-.1.56V325h-1.11Z"/><path d="M502.65,320.79c0-.8,0-1.45,0-2.05h1l.05,1.08h0a2.47,2.47,0,0,1,2.24-1.22c1.52,0,2.66,1.28,2.66,3.19,0,2.27-1.38,3.38-2.86,3.38a2.19,2.19,0,0,1-1.93-1h0v3.42h-1.13Zm1.13,1.68a3.23,3.23,0,0,0,.05.47,1.77,1.77,0,0,0,1.72,1.34c1.21,0,1.91-1,1.91-2.43,0-1.26-.66-2.34-1.87-2.34a1.83,1.83,0,0,0-1.73,1.41,1.93,1.93,0,0,0-.08.47Z"/><path d="M510.05,315.8h1.14V325h-1.14Z"/><path d="M513.75,322.09a2,2,0,0,0,2.16,2.19,4.15,4.15,0,0,0,1.74-.33l.2.82a5.2,5.2,0,0,1-2.1.39,2.92,2.92,0,0,1-3.09-3.17c0-1.9,1.12-3.39,3-3.39,2,0,2.6,1.8,2.6,3a4.82,4.82,0,0,1,0,.53Zm3.35-.82a1.61,1.61,0,0,0-1.58-1.85,1.89,1.89,0,0,0-1.76,1.85Z"/><path d="M519.63,320.44c0-.65,0-1.18-.06-1.7h1l0,1h0a2.17,2.17,0,0,1,2-1.15,1.85,1.85,0,0,1,1.78,1.26h0a2.49,2.49,0,0,1,.7-.82,2.12,2.12,0,0,1,1.39-.44c.83,0,2.07.54,2.07,2.73V325h-1.12v-3.56c0-1.21-.44-1.94-1.36-1.94a1.5,1.5,0,0,0-1.36,1,2,2,0,0,0-.09.57V325h-1.11v-3.77c0-1-.45-1.73-1.32-1.73a1.55,1.55,0,0,0-1.41,1.15,1.47,1.47,0,0,0-.1.56V325h-1.11Z"/><path d="M531.1,322.09a2,2,0,0,0,2.16,2.19A4.11,4.11,0,0,0,535,324l.2.82a5.11,5.11,0,0,1-2.09.39A2.92,2.92,0,0,1,530,322c0-1.9,1.12-3.39,3-3.39,2.06,0,2.6,1.8,2.6,3a3.17,3.17,0,0,1,0,.53Zm3.36-.82a1.63,1.63,0,0,0-1.59-1.85,1.89,1.89,0,0,0-1.75,1.85Z"/><path d="M537,320.44c0-.65,0-1.18-.05-1.7h1l.07,1h0a2.32,2.32,0,0,1,2.08-1.18c.87,0,2.23.52,2.23,2.67V325h-1.15V321.4c0-1-.37-1.85-1.45-1.85a1.68,1.68,0,0,0-1.62,1.7V325H537Z"/><path d="M545.52,316.93v1.81h1.64v.87h-1.64V323c0,.78.22,1.23.86,1.23a2.44,2.44,0,0,0,.66-.08l.05.86a2.82,2.82,0,0,1-1,.15,1.58,1.58,0,0,1-1.23-.48,2.32,2.32,0,0,1-.45-1.64v-3.43h-1v-.87h1v-1.51Z"/><path d="M551.93,325l-.09-.79h0a2.35,2.35,0,0,1-1.92.93,1.79,1.79,0,0,1-1.93-1.8c0-1.52,1.35-2.36,3.79-2.34v-.13a1.3,1.3,0,0,0-1.43-1.46,3.09,3.09,0,0,0-1.64.47l-.26-.75a3.87,3.87,0,0,1,2.06-.56c1.93,0,2.4,1.31,2.4,2.57v2.35A8.69,8.69,0,0,0,553,325Zm-.17-3.21c-1.25,0-2.66.2-2.66,1.42a1,1,0,0,0,1.07,1.09,1.59,1.59,0,0,0,1.53-1.05,1.19,1.19,0,0,0,.06-.37Z"/><path d="M554.71,320.44c0-.65,0-1.18-.05-1.7h1l.07,1h0a2.32,2.32,0,0,1,2.08-1.18c.88,0,2.23.52,2.23,2.67V325h-1.15V321.4c0-1-.37-1.85-1.45-1.85a1.63,1.63,0,0,0-1.54,1.17,1.66,1.66,0,0,0-.07.53V325h-1.15Z"/><path d="M567.36,315.8v7.61c0,.56,0,1.19,0,1.62h-1l-.06-1.09h0a2.33,2.33,0,0,1-2.15,1.23c-1.52,0-2.69-1.28-2.69-3.19,0-2.1,1.29-3.38,2.82-3.38a2.11,2.11,0,0,1,1.9,1h0V315.8Zm-1.14,5.5a2.61,2.61,0,0,0-.05-.48,1.69,1.69,0,0,0-1.66-1.33c-1.18,0-1.88,1-1.88,2.43s.62,2.33,1.86,2.33a1.73,1.73,0,0,0,1.68-1.36,2.65,2.65,0,0,0,.05-.5Z"/><path d="M575,321.83a3.07,3.07,0,0,1-3.13,3.34,3,3,0,0,1-3-3.23,3.07,3.07,0,0,1,3.12-3.34A3,3,0,0,1,575,321.83Zm-5,.07c0,1.38.79,2.42,1.91,2.42s1.91-1,1.91-2.45c0-1.06-.53-2.42-1.88-2.42S570,320.7,570,321.9Z"/><path d="M93.7,339.46a3,3,0,0,0,1.51.46c.83,0,1.22-.42,1.22-.94s-.32-.84-1.17-1.16c-1.13-.4-1.66-1-1.66-1.78a1.94,1.94,0,0,1,2.17-1.84,3.12,3.12,0,0,1,1.55.39l-.29.83a2.37,2.37,0,0,0-1.28-.37c-.68,0-1.06.39-1.06.86s.38.76,1.2,1.07c1.09.41,1.65,1,1.65,1.9,0,1.1-.86,1.88-2.35,1.88a3.59,3.59,0,0,1-1.77-.43Z"/><path d="M100.28,332.57a.71.71,0,0,1-1.41,0,.69.69,0,0,1,.71-.71A.67.67,0,0,1,100.28,332.57ZM99,340.63v-6.29h1.14v6.29Z"/><path d="M101.89,339.46a3,3,0,0,0,1.51.46c.83,0,1.23-.42,1.23-.94s-.33-.84-1.17-1.16c-1.14-.4-1.67-1-1.67-1.78A1.94,1.94,0,0,1,104,334.2a3.12,3.12,0,0,1,1.55.39l-.29.83a2.37,2.37,0,0,0-1.28-.37c-.68,0-1.06.39-1.06.86s.38.76,1.2,1.07c1.09.41,1.65,1,1.65,1.9,0,1.1-.86,1.88-2.35,1.88a3.59,3.59,0,0,1-1.77-.43Z"/><path d="M108.58,332.53v1.81h1.63v.87h-1.63v3.39c0,.78.22,1.23.85,1.23a2.58,2.58,0,0,0,.67-.08l.05.86a2.85,2.85,0,0,1-1,.15,1.58,1.58,0,0,1-1.23-.48,2.37,2.37,0,0,1-.44-1.64v-3.43h-1v-.87h1v-1.51Z"/><path d="M112.06,337.69a2,2,0,0,0,2.16,2.19,4.15,4.15,0,0,0,1.74-.33l.2.82a5.2,5.2,0,0,1-2.1.39,2.92,2.92,0,0,1-3.09-3.17c0-1.9,1.12-3.39,3-3.39,2,0,2.6,1.8,2.6,3a4.82,4.82,0,0,1,0,.53Zm3.35-.82a1.61,1.61,0,0,0-1.58-1.85,1.89,1.89,0,0,0-1.76,1.85Z"/><path d="M117.94,336c0-.65,0-1.18-.06-1.7h1l.06,1h0a2.17,2.17,0,0,1,2-1.15,1.85,1.85,0,0,1,1.78,1.26h0a2.49,2.49,0,0,1,.7-.82,2.12,2.12,0,0,1,1.39-.44c.83,0,2.07.54,2.07,2.73v3.7H125.8v-3.56c0-1.21-.44-1.94-1.36-1.94a1.5,1.5,0,0,0-1.36,1,2,2,0,0,0-.09.57v3.89h-1.12v-3.77c0-1-.44-1.73-1.31-1.73a1.58,1.58,0,0,0-1.42,1.15,1.69,1.69,0,0,0-.09.56v3.79h-1.11Z"/><path d="M132.26,340.63l-.09-.79h0a2.35,2.35,0,0,1-1.92.93,1.79,1.79,0,0,1-1.93-1.8c0-1.52,1.35-2.36,3.79-2.34v-.13a1.3,1.3,0,0,0-1.43-1.46,3.09,3.09,0,0,0-1.64.47l-.26-.75a3.88,3.88,0,0,1,2.07-.56c1.92,0,2.39,1.31,2.39,2.57v2.35a8.69,8.69,0,0,0,.1,1.51Zm-.17-3.21c-1.25,0-2.66.2-2.66,1.42a1,1,0,0,0,1.08,1.09,1.56,1.56,0,0,0,1.52-1.05,1.19,1.19,0,0,0,.06-.37Z"/><path d="M134.89,339.46a3,3,0,0,0,1.5.46c.84,0,1.23-.42,1.23-.94s-.33-.84-1.17-1.16c-1.13-.4-1.67-1-1.67-1.78A1.94,1.94,0,0,1,137,334.2a3.12,3.12,0,0,1,1.55.39l-.29.83a2.37,2.37,0,0,0-1.28-.37c-.68,0-1.05.39-1.05.86s.37.76,1.19,1.07c1.09.41,1.65,1,1.65,1.9,0,1.1-.86,1.88-2.35,1.88a3.59,3.59,0,0,1-1.77-.43Z"/><path d="M139.31,342.23a20.18,20.18,0,0,0,.78-3.11l1.27-.13a16,16,0,0,1-1.23,3.16Z"/><path d="M146.77,332.57a.71.71,0,0,1-1.42,0,.7.7,0,0,1,.72-.71A.67.67,0,0,1,146.77,332.57Zm-1.28,8.06v-6.29h1.15v6.29Z"/><path d="M148.54,336c0-.65,0-1.18-.06-1.7h1l.06,1h0a2.31,2.31,0,0,1,2.08-1.18c.87,0,2.22.52,2.22,2.67v3.76h-1.14V337c0-1-.38-1.85-1.46-1.85a1.62,1.62,0,0,0-1.53,1.17,1.64,1.64,0,0,0-.08.53v3.78h-1.14Z"/><path d="M157.08,332.53v1.81h1.63v.87h-1.63v3.39c0,.78.22,1.23.86,1.23a2.49,2.49,0,0,0,.66-.08l.05.86a2.82,2.82,0,0,1-1,.15,1.59,1.59,0,0,1-1.24-.48,2.37,2.37,0,0,1-.44-1.64v-3.43h-1v-.87h1v-1.51Z"/><path d="M160.56,337.69a2,2,0,0,0,2.16,2.19,4.15,4.15,0,0,0,1.74-.33l.2.82a5.2,5.2,0,0,1-2.1.39,2.92,2.92,0,0,1-3.09-3.17c0-1.9,1.12-3.39,2.95-3.39,2.05,0,2.6,1.8,2.6,3a4.82,4.82,0,0,1,0,.53Zm3.36-.82a1.63,1.63,0,0,0-1.59-1.85,1.9,1.9,0,0,0-1.76,1.85Z"/><path d="M171.86,334.34c0,.45-.05,1-.05,1.73v3.65a3.6,3.6,0,0,1-.9,2.87,3.31,3.31,0,0,1-2.29.76,4,4,0,0,1-2.09-.52l.28-.87a3.58,3.58,0,0,0,1.85.49c1.17,0,2-.61,2-2.2v-.7h0a2.24,2.24,0,0,1-2,1.06,2.82,2.82,0,0,1-2.68-3.07c0-2.13,1.39-3.34,2.84-3.34a2.09,2.09,0,0,1,2,1.09h0l.06-1Zm-1.19,2.48a1.73,1.73,0,0,0-.06-.52,1.66,1.66,0,0,0-1.6-1.21c-1.09,0-1.87.93-1.87,2.38,0,1.24.62,2.26,1.86,2.26a1.66,1.66,0,0,0,1.58-1.17,1.81,1.81,0,0,0,.09-.61Z"/><path d="M173.63,336.3c0-.74,0-1.38-.06-2h1l0,1.23h.06a1.88,1.88,0,0,1,1.74-1.37,1,1,0,0,1,.32,0v1.07a2.13,2.13,0,0,0-.39,0,1.6,1.6,0,0,0-1.53,1.46,2.92,2.92,0,0,0-.05.54v3.35h-1.13Z"/><path d="M181.3,340.63l-.1-.79h0a2.37,2.37,0,0,1-1.93.93,1.79,1.79,0,0,1-1.92-1.8c0-1.52,1.35-2.36,3.78-2.34v-.13a1.3,1.3,0,0,0-1.43-1.46,3.11,3.11,0,0,0-1.64.47l-.26-.75a3.91,3.91,0,0,1,2.07-.56c1.92,0,2.39,1.31,2.39,2.57v2.35a8.62,8.62,0,0,0,.11,1.51Zm-.17-3.21c-1.25,0-2.67.2-2.67,1.42a1,1,0,0,0,1.08,1.09,1.56,1.56,0,0,0,1.52-1.05,1.21,1.21,0,0,0,.07-.37Z"/><path d="M188.56,340.4a4.32,4.32,0,0,1-1.81.36,3,3,0,0,1-3.13-3.21,3.2,3.2,0,0,1,3.38-3.34,3.93,3.93,0,0,1,1.59.32l-.26.89a2.63,2.63,0,0,0-1.33-.3,2.18,2.18,0,0,0-2.22,2.38,2.15,2.15,0,0,0,2.18,2.35,3.35,3.35,0,0,0,1.41-.31Z"/><path d="M191.17,332.57a.67.67,0,0,1-.72.7.68.68,0,0,1-.69-.7.69.69,0,0,1,.71-.71A.67.67,0,0,1,191.17,332.57Zm-1.27,8.06v-6.29h1.15v6.29Z"/><path d="M198.64,337.43a3.07,3.07,0,0,1-3.14,3.34,3,3,0,0,1-3-3.23,3.07,3.07,0,0,1,3.12-3.34A3,3,0,0,1,198.64,337.43Zm-5,.07c0,1.38.79,2.42,1.91,2.42s1.91-1,1.91-2.45c0-1.06-.54-2.42-1.89-2.42S193.65,336.3,193.65,337.5Z"/><path d="M200.08,336c0-.65,0-1.18-.05-1.7h1l.07,1h0a2.32,2.32,0,0,1,2.08-1.18c.87,0,2.23.52,2.23,2.67v3.76h-1.15V337c0-1-.37-1.85-1.45-1.85a1.68,1.68,0,0,0-1.62,1.7v3.78h-1.14Z"/><path d="M207.93,337.69a2,2,0,0,0,2.16,2.19,4.15,4.15,0,0,0,1.74-.33l.2.82a5.2,5.2,0,0,1-2.1.39,2.92,2.92,0,0,1-3.09-3.17c0-1.9,1.12-3.39,2.95-3.39,2.05,0,2.6,1.8,2.6,3a3.17,3.17,0,0,1,0,.53Zm3.36-.82A1.63,1.63,0,0,0,209.7,335a1.9,1.9,0,0,0-1.76,1.85Z"/><path d="M213.65,339.46a3,3,0,0,0,1.51.46c.83,0,1.22-.42,1.22-.94s-.32-.84-1.17-1.16c-1.13-.4-1.66-1-1.66-1.78a1.94,1.94,0,0,1,2.17-1.84,3.12,3.12,0,0,1,1.55.39l-.29.83a2.41,2.41,0,0,0-1.29-.37c-.67,0-1.05.39-1.05.86s.38.76,1.2,1.07c1.09.41,1.65,1,1.65,1.9,0,1.1-.86,1.88-2.36,1.88a3.55,3.55,0,0,1-1.76-.43Z"/><path d="M222.13,334.34l1.37,3.72c.15.41.3.91.41,1.28h0c.12-.37.25-.85.41-1.31l1.25-3.69h1.2l-1.71,4.48c-.82,2.16-1.38,3.27-2.16,3.94a3,3,0,0,1-1.4.74l-.29-1a2.92,2.92,0,0,0,1-.56,3.45,3.45,0,0,0,1-1.27.69.69,0,0,0,.09-.27.94.94,0,0,0-.07-.3l-2.33-5.8Z"/><path d="M230.59,336c0-.65,0-1.18-.05-1.7h1l.05,1h0a2.18,2.18,0,0,1,2-1.15,1.87,1.87,0,0,1,1.78,1.26h0a2.51,2.51,0,0,1,.71-.82,2.1,2.1,0,0,1,1.39-.44c.83,0,2.06.54,2.06,2.73v3.7h-1.11v-3.56c0-1.21-.45-1.94-1.37-1.94a1.47,1.47,0,0,0-1.35,1,2,2,0,0,0-.09.57v3.89h-1.12v-3.77c0-1-.44-1.73-1.31-1.73a1.56,1.56,0,0,0-1.42,1.15,1.46,1.46,0,0,0-.09.56v3.79h-1.12Z"/><path d="M242.07,337.69a2,2,0,0,0,2.16,2.19,4.15,4.15,0,0,0,1.74-.33l.19.82a5.11,5.11,0,0,1-2.09.39,2.91,2.91,0,0,1-3.09-3.17c0-1.9,1.11-3.39,3-3.39,2,0,2.6,1.8,2.6,3a4.82,4.82,0,0,1,0,.53Zm3.35-.82a1.62,1.62,0,0,0-1.58-1.85,1.89,1.89,0,0,0-1.76,1.85Z"/><path d="M246.41,342.45a1.87,1.87,0,0,0,1.25-.48c.31-.36.43-.86.43-2.37v-5.26h1.14v5.71a3.43,3.43,0,0,1-.75,2.58,2.9,2.9,0,0,1-1.95.72Zm3-9.88a.67.67,0,0,1-.71.7.69.69,0,0,1-.71-.7.7.7,0,0,1,.73-.71A.67.67,0,0,1,249.36,332.57Z"/><path d="M256.8,337.43a3.07,3.07,0,0,1-3.14,3.34,3,3,0,0,1-3-3.23,3.07,3.07,0,0,1,3.12-3.34A3,3,0,0,1,256.8,337.43Zm-5,.07c0,1.38.79,2.42,1.91,2.42s1.91-1,1.91-2.45c0-1.06-.54-2.42-1.89-2.42S251.81,336.3,251.81,337.5Z"/><path d="M258.24,336.3c0-.74,0-1.38-.05-2h1l0,1.23h0A1.88,1.88,0,0,1,261,334.2a1.15,1.15,0,0,1,.33,0v1.07a2.29,2.29,0,0,0-.39,0,1.61,1.61,0,0,0-1.54,1.46,4.15,4.15,0,0,0-.05.54v3.35h-1.13Z"/><path d="M265.91,340.63l-.09-.79h0a2.35,2.35,0,0,1-1.92.93,1.79,1.79,0,0,1-1.93-1.8c0-1.52,1.35-2.36,3.78-2.34v-.13a1.3,1.3,0,0,0-1.43-1.46,3.08,3.08,0,0,0-1.63.47l-.26-.75a3.87,3.87,0,0,1,2.06-.56c1.93,0,2.4,1.31,2.4,2.57v2.35a8.69,8.69,0,0,0,.1,1.51Zm-.17-3.21c-1.25,0-2.66.2-2.66,1.42a1,1,0,0,0,1.07,1.09,1.47,1.47,0,0,0,1.59-1.42Z"/><path d="M268.54,339.46a3,3,0,0,0,1.5.46c.84,0,1.23-.42,1.23-.94s-.33-.84-1.17-1.16c-1.14-.4-1.67-1-1.67-1.78a1.94,1.94,0,0,1,2.17-1.84,3.12,3.12,0,0,1,1.55.39l-.29.83a2.37,2.37,0,0,0-1.28-.37c-.68,0-1.06.39-1.06.86s.38.76,1.2,1.07c1.09.41,1.65,1,1.65,1.9,0,1.1-.86,1.88-2.35,1.88a3.59,3.59,0,0,1-1.77-.43Z"/><path d="M282,331.4V339c0,.56,0,1.19.05,1.62h-1l-.05-1.09h0a2.33,2.33,0,0,1-2.15,1.23c-1.52,0-2.69-1.28-2.69-3.19,0-2.1,1.29-3.38,2.82-3.38a2.11,2.11,0,0,1,1.9,1h0V331.4Zm-1.15,5.5a2,2,0,0,0-.05-.48,1.68,1.68,0,0,0-1.65-1.33c-1.18,0-1.88,1-1.88,2.43s.62,2.33,1.86,2.33a1.72,1.72,0,0,0,1.67-1.36,2,2,0,0,0,.05-.5Z"/><path d="M284.56,337.69a2,2,0,0,0,2.16,2.19,4.11,4.11,0,0,0,1.74-.33l.2.82a5.11,5.11,0,0,1-2.09.39,2.92,2.92,0,0,1-3.1-3.17c0-1.9,1.12-3.39,2.95-3.39,2.06,0,2.6,1.8,2.6,3a3.17,3.17,0,0,1,0,.53Zm3.36-.82a1.63,1.63,0,0,0-1.59-1.85,1.88,1.88,0,0,0-1.75,1.85Z"/><path d="M293.31,340.63v-5.42h-.88v-.87h.88v-.27a2.83,2.83,0,0,1,.89-2.17,3,3,0,0,1,2-.64,4.07,4.07,0,0,1,1.89.41v9H297v-8.32a2,2,0,0,0-.93-.17c-1.2,0-1.59.87-1.59,1.89v.31h1.47v.87h-1.47v5.42Z"/><path d="M305.26,338.92c0,.65,0,1.22.05,1.71h-1l-.07-1h0a2.37,2.37,0,0,1-2.08,1.17c-1,0-2.17-.54-2.17-2.75v-3.68h1.14v3.48c0,1.2.36,2,1.4,2a1.67,1.67,0,0,0,1.51-1,1.59,1.59,0,0,0,.11-.59v-3.86h1.14Z"/><path d="M305.62,342.45a1.85,1.85,0,0,0,1.25-.48c.31-.36.43-.86.43-2.37v-5.26h1.14v5.71a3.43,3.43,0,0,1-.75,2.58,2.9,2.9,0,0,1-1.95.72Zm2.95-9.88a.66.66,0,0,1-.71.7.68.68,0,0,1-.7-.7.7.7,0,0,1,.72-.71A.67.67,0,0,1,308.57,332.57Z"/><path d="M316,337.43a3.07,3.07,0,0,1-3.13,3.34,3,3,0,0,1-3-3.23A3.07,3.07,0,0,1,313,334.2,3,3,0,0,1,316,337.43Zm-5,.07c0,1.38.79,2.42,1.91,2.42s1.91-1,1.91-2.45c0-1.06-.53-2.42-1.88-2.42S311,336.3,311,337.5Z"/><path d="M325.64,331.4V339c0,.56,0,1.19.06,1.62h-1l-.05-1.09h0a2.33,2.33,0,0,1-2.14,1.23c-1.53,0-2.7-1.28-2.7-3.19,0-2.1,1.29-3.38,2.83-3.38a2.08,2.08,0,0,1,1.89,1h0V331.4Zm-1.14,5.5a2,2,0,0,0-.05-.48,1.69,1.69,0,0,0-1.65-1.33c-1.19,0-1.89,1-1.89,2.43s.63,2.33,1.86,2.33a1.73,1.73,0,0,0,1.68-1.36,2,2,0,0,0,.05-.5Z"/><path d="M328.18,337.69a2,2,0,0,0,2.16,2.19,4.15,4.15,0,0,0,1.74-.33l.19.82a5.11,5.11,0,0,1-2.09.39,2.91,2.91,0,0,1-3.09-3.17c0-1.9,1.11-3.39,3-3.39,2,0,2.6,1.8,2.6,3a4.82,4.82,0,0,1,0,.53Zm3.35-.82A1.62,1.62,0,0,0,330,335a1.89,1.89,0,0,0-1.76,1.85Z"/><path d="M338.19,332.53v1.81h1.64v.87h-1.64v3.39c0,.78.22,1.23.86,1.23a2.49,2.49,0,0,0,.66-.08l.05.86a2.82,2.82,0,0,1-1,.15,1.59,1.59,0,0,1-1.24-.48,2.37,2.37,0,0,1-.44-1.64v-3.43h-1v-.87h1v-1.51Z"/><path d="M341.11,336.3c0-.74,0-1.38-.05-2h1l0,1.23h0a1.89,1.89,0,0,1,1.74-1.37,1.11,1.11,0,0,1,.33,0v1.07a2.21,2.21,0,0,0-.39,0,1.59,1.59,0,0,0-1.53,1.46,2.87,2.87,0,0,0-.06.54v3.35h-1.13Z"/><path d="M348.78,340.63l-.09-.79h0a2.34,2.34,0,0,1-1.92.93,1.8,1.8,0,0,1-1.93-1.8c0-1.52,1.36-2.36,3.79-2.34v-.13a1.3,1.3,0,0,0-1.43-1.46,3.09,3.09,0,0,0-1.64.47l-.26-.75a3.88,3.88,0,0,1,2.07-.56c1.92,0,2.39,1.31,2.39,2.57v2.35a9.8,9.8,0,0,0,.1,1.51Zm-.17-3.21c-1.24,0-2.66.2-2.66,1.42a1,1,0,0,0,1.08,1.09,1.56,1.56,0,0,0,1.52-1.05,1.19,1.19,0,0,0,.06-.37Z"/><path d="M351.51,340.63c0-.43.05-1.06.05-1.62V331.4h1.14v4h0a2.34,2.34,0,0,1,2.15-1.15c1.56,0,2.66,1.3,2.65,3.21,0,2.25-1.42,3.36-2.82,3.36a2.25,2.25,0,0,1-2.11-1.18h0l-.05,1Zm1.19-2.52a1.93,1.93,0,0,0,.05.42,1.75,1.75,0,0,0,1.71,1.33c1.2,0,1.91-1,1.91-2.41,0-1.26-.65-2.34-1.87-2.34a1.82,1.82,0,0,0-1.74,1.4,2.07,2.07,0,0,0-.06.47Z"/><path d="M362.45,340.63l-.1-.79h0a2.34,2.34,0,0,1-1.92.93,1.79,1.79,0,0,1-1.92-1.8c0-1.52,1.35-2.36,3.78-2.34v-.13a1.3,1.3,0,0,0-1.43-1.46,3.09,3.09,0,0,0-1.64.47l-.26-.75a3.91,3.91,0,0,1,2.07-.56c1.92,0,2.39,1.31,2.39,2.57v2.35a8.62,8.62,0,0,0,.11,1.51Zm-.17-3.21c-1.25,0-2.67.2-2.67,1.42a1,1,0,0,0,1.08,1.09,1.56,1.56,0,0,0,1.52-1.05,1.21,1.21,0,0,0,.07-.37Z"/><path d="M363.69,342.45a1.85,1.85,0,0,0,1.25-.48c.31-.36.43-.86.43-2.37v-5.26h1.14v5.71a3.43,3.43,0,0,1-.75,2.58,2.9,2.9,0,0,1-1.95.72Zm2.95-9.88a.66.66,0,0,1-.71.7.68.68,0,0,1-.7-.7.7.7,0,0,1,.72-.71A.67.67,0,0,1,366.64,332.57Z"/><path d="M374.08,337.43a3.07,3.07,0,0,1-3.13,3.34,3,3,0,0,1-3-3.23,3.07,3.07,0,0,1,3.12-3.34A3,3,0,0,1,374.08,337.43Zm-5,.07c0,1.38.79,2.42,1.91,2.42s1.91-1,1.91-2.45c0-1.06-.53-2.42-1.89-2.42S369.09,336.3,369.09,337.5Z"/><path d="M381.76,340.63l-.09-.79h0a2.34,2.34,0,0,1-1.92.93,1.79,1.79,0,0,1-1.93-1.8c0-1.52,1.36-2.36,3.79-2.34v-.13a1.3,1.3,0,0,0-1.43-1.46,3.09,3.09,0,0,0-1.64.47l-.26-.75a3.88,3.88,0,0,1,2.07-.56c1.92,0,2.39,1.31,2.39,2.57v2.35a8.69,8.69,0,0,0,.1,1.51Zm-.17-3.21c-1.25,0-2.66.2-2.66,1.42a1,1,0,0,0,1.08,1.09,1.56,1.56,0,0,0,1.52-1.05,1.19,1.19,0,0,0,.06-.37Z"/><path d="M390,331.4V339c0,.56,0,1.19,0,1.62h-1l-.05-1.09h0a2.31,2.31,0,0,1-2.14,1.23c-1.52,0-2.69-1.28-2.69-3.19,0-2.1,1.29-3.38,2.82-3.38a2.11,2.11,0,0,1,1.9,1h0V331.4Zm-1.15,5.5a2,2,0,0,0-.05-.48,1.68,1.68,0,0,0-1.65-1.33c-1.18,0-1.88,1-1.88,2.43s.62,2.33,1.85,2.33a1.73,1.73,0,0,0,1.68-1.36,2,2,0,0,0,.05-.5Z"/><path d="M395.36,340.63l-.09-.79h0a2.35,2.35,0,0,1-1.92.93,1.79,1.79,0,0,1-1.93-1.8c0-1.52,1.35-2.36,3.79-2.34v-.13a1.3,1.3,0,0,0-1.43-1.46,3.09,3.09,0,0,0-1.64.47l-.26-.75a3.87,3.87,0,0,1,2.06-.56c1.93,0,2.4,1.31,2.4,2.57v2.35a8.69,8.69,0,0,0,.1,1.51Zm-.17-3.21c-1.25,0-2.66.2-2.66,1.42a1,1,0,0,0,1.07,1.09,1.59,1.59,0,0,0,1.53-1.05,1.19,1.19,0,0,0,.06-.37Z"/><path d="M398.14,336.39c0-.8,0-1.45-.05-2.05h1l.05,1.08h0a2.47,2.47,0,0,1,2.24-1.22c1.52,0,2.67,1.28,2.67,3.19,0,2.27-1.38,3.38-2.86,3.38a2.21,2.21,0,0,1-1.94-1h0v3.42h-1.13Zm1.13,1.68a3.23,3.23,0,0,0,.05.47,1.77,1.77,0,0,0,1.72,1.34c1.21,0,1.91-1,1.91-2.43,0-1.26-.66-2.34-1.87-2.34a1.83,1.83,0,0,0-1.73,1.41,1.93,1.93,0,0,0-.08.47Z"/><path d="M406.92,332.53v1.81h1.63v.87h-1.63v3.39c0,.78.22,1.23.85,1.23a2.58,2.58,0,0,0,.67-.08l.05.86a2.85,2.85,0,0,1-1,.15,1.58,1.58,0,0,1-1.23-.48,2.37,2.37,0,0,1-.44-1.64v-3.43h-1v-.87h1v-1.51Z"/><path d="M413.33,340.63l-.1-.79h0a2.34,2.34,0,0,1-1.92.93,1.79,1.79,0,0,1-1.92-1.8c0-1.52,1.35-2.36,3.78-2.34v-.13A1.3,1.3,0,0,0,411.7,335a3.09,3.09,0,0,0-1.64.47l-.26-.75a3.91,3.91,0,0,1,2.07-.56c1.92,0,2.39,1.31,2.39,2.57v2.35a8.62,8.62,0,0,0,.11,1.51Zm-.17-3.21c-1.25,0-2.67.2-2.67,1.42a1,1,0,0,0,1.08,1.09,1.56,1.56,0,0,0,1.52-1.05,1.21,1.21,0,0,0,.07-.37Z"/><path d="M421.54,331.4V339c0,.56,0,1.19,0,1.62h-1l-.06-1.09h0a2.33,2.33,0,0,1-2.15,1.23c-1.52,0-2.69-1.28-2.69-3.19,0-2.1,1.29-3.38,2.82-3.38a2.11,2.11,0,0,1,1.9,1h0V331.4Zm-1.14,5.5a2,2,0,0,0-.06-.48,1.67,1.67,0,0,0-1.65-1.33c-1.18,0-1.88,1-1.88,2.43s.62,2.33,1.86,2.33a1.72,1.72,0,0,0,1.67-1.36,2,2,0,0,0,.06-.5Z"/><path d="M426.92,340.63l-.09-.79h0a2.34,2.34,0,0,1-1.92.93,1.79,1.79,0,0,1-1.93-1.8c0-1.52,1.36-2.36,3.79-2.34v-.13A1.3,1.3,0,0,0,425.3,335a3.09,3.09,0,0,0-1.64.47l-.26-.75a3.88,3.88,0,0,1,2.07-.56c1.92,0,2.39,1.31,2.39,2.57v2.35a8.69,8.69,0,0,0,.1,1.51Zm-.17-3.21c-1.25,0-2.66.2-2.66,1.42a1,1,0,0,0,1.08,1.09,1.56,1.56,0,0,0,1.52-1.05,1.19,1.19,0,0,0,.06-.37Z"/><path d="M429.55,339.46a3,3,0,0,0,1.51.46c.83,0,1.22-.42,1.22-.94s-.33-.84-1.17-1.16c-1.13-.4-1.67-1-1.67-1.78a1.94,1.94,0,0,1,2.18-1.84,3.11,3.11,0,0,1,1.54.39l-.28.83a2.44,2.44,0,0,0-1.29-.37c-.68,0-1,.39-1,.86s.37.76,1.19,1.07c1.09.41,1.65,1,1.65,1.9,0,1.1-.85,1.88-2.35,1.88a3.59,3.59,0,0,1-1.77-.43Z"/><path d="M441.09,340.63l-.09-.79h0a2.34,2.34,0,0,1-1.92.93,1.79,1.79,0,0,1-1.93-1.8c0-1.52,1.36-2.36,3.79-2.34v-.13a1.3,1.3,0,0,0-1.43-1.46,3.09,3.09,0,0,0-1.64.47l-.26-.75a3.88,3.88,0,0,1,2.07-.56c1.92,0,2.39,1.31,2.39,2.57v2.35a8.69,8.69,0,0,0,.1,1.51Zm-.17-3.21c-1.25,0-2.66.2-2.66,1.42a1,1,0,0,0,1.08,1.09,1.56,1.56,0,0,0,1.52-1.05,1.19,1.19,0,0,0,.06-.37Z"/><path d="M451.12,340.4a4.36,4.36,0,0,1-1.81.36,3,3,0,0,1-3.14-3.21,3.2,3.2,0,0,1,3.38-3.34,3.93,3.93,0,0,1,1.59.32l-.26.89a2.6,2.6,0,0,0-1.33-.3,2.37,2.37,0,0,0,0,4.73,3.3,3.3,0,0,0,1.4-.31Z"/><path d="M455.94,340.63l-.09-.79h0a2.36,2.36,0,0,1-1.93.93A1.79,1.79,0,0,1,452,339c0-1.52,1.35-2.36,3.78-2.34v-.13a1.3,1.3,0,0,0-1.43-1.46,3.14,3.14,0,0,0-1.64.47l-.25-.75a3.84,3.84,0,0,1,2.06-.56c1.93,0,2.39,1.31,2.39,2.57v2.35a8.62,8.62,0,0,0,.11,1.51Zm-.17-3.21c-1.25,0-2.67.2-2.67,1.42a1,1,0,0,0,1.08,1.09,1.56,1.56,0,0,0,1.52-1.05,1.21,1.21,0,0,0,.07-.37Z"/><path d="M464.15,331.4V339c0,.56,0,1.19.06,1.62h-1l-.05-1.09h0a2.33,2.33,0,0,1-2.14,1.23c-1.53,0-2.7-1.28-2.7-3.19,0-2.1,1.29-3.38,2.83-3.38a2.08,2.08,0,0,1,1.89,1h0V331.4ZM463,336.9a2,2,0,0,0-.05-.48,1.68,1.68,0,0,0-1.65-1.33c-1.19,0-1.89,1-1.89,2.43s.63,2.33,1.86,2.33a1.73,1.73,0,0,0,1.68-1.36,2,2,0,0,0,.05-.5Z"/><path d="M469.54,340.63l-.1-.79h0a2.37,2.37,0,0,1-1.93.93,1.79,1.79,0,0,1-1.92-1.8c0-1.52,1.35-2.36,3.78-2.34v-.13a1.3,1.3,0,0,0-1.43-1.46,3.11,3.11,0,0,0-1.64.47l-.26-.75a3.91,3.91,0,0,1,2.07-.56c1.92,0,2.39,1.31,2.39,2.57v2.35a8.62,8.62,0,0,0,.11,1.51Zm-.17-3.21c-1.25,0-2.67.2-2.67,1.42a1,1,0,0,0,1.08,1.09,1.56,1.56,0,0,0,1.52-1.05,1.21,1.21,0,0,0,.07-.37Z"/><path d="M475.07,336c0-.65,0-1.18-.05-1.7h1l.06,1h0a2.31,2.31,0,0,1,2.08-1.18c.87,0,2.22.52,2.22,2.67v3.76h-1.14V337c0-1-.38-1.85-1.46-1.85a1.62,1.62,0,0,0-1.53,1.17,1.41,1.41,0,0,0-.08.53v3.78h-1.15Z"/><path d="M482.92,337.69a2,2,0,0,0,2.16,2.19,4.2,4.2,0,0,0,1.75-.33l.19.82a5.11,5.11,0,0,1-2.09.39,2.92,2.92,0,0,1-3.1-3.17c0-1.9,1.12-3.39,2.95-3.39,2.06,0,2.6,1.8,2.6,3a3.17,3.17,0,0,1,0,.53Zm3.36-.82a1.63,1.63,0,0,0-1.59-1.85,1.89,1.89,0,0,0-1.75,1.85Z"/><path d="M493.29,340.4a4.36,4.36,0,0,1-1.81.36,3,3,0,0,1-3.13-3.21,3.19,3.19,0,0,1,3.38-3.34,3.92,3.92,0,0,1,1.58.32l-.26.89a2.59,2.59,0,0,0-1.32-.3,2.37,2.37,0,0,0,0,4.73,3.26,3.26,0,0,0,1.4-.31Z"/><path d="M495.18,337.69a2,2,0,0,0,2.16,2.19,4.11,4.11,0,0,0,1.74-.33l.2.82a5.11,5.11,0,0,1-2.09.39,2.92,2.92,0,0,1-3.1-3.17c0-1.9,1.12-3.39,3-3.39,2.06,0,2.6,1.8,2.6,3a3.17,3.17,0,0,1,0,.53Zm3.36-.82A1.63,1.63,0,0,0,497,335a1.89,1.89,0,0,0-1.75,1.85Z"/><path d="M500.9,339.46a3,3,0,0,0,1.51.46c.83,0,1.22-.42,1.22-.94s-.32-.84-1.17-1.16c-1.13-.4-1.66-1-1.66-1.78A1.94,1.94,0,0,1,503,334.2a3.12,3.12,0,0,1,1.55.39l-.29.83a2.41,2.41,0,0,0-1.29-.37c-.67,0-1.05.39-1.05.86s.38.76,1.2,1.07c1.09.41,1.65,1,1.65,1.9,0,1.1-.86,1.88-2.35,1.88a3.59,3.59,0,0,1-1.77-.43Z"/><path d="M507.48,332.57a.67.67,0,0,1-.73.7.68.68,0,0,1-.69-.7.7.7,0,0,1,.72-.71A.67.67,0,0,1,507.48,332.57Zm-1.27,8.06v-6.29h1.14v6.29Z"/><path d="M514.68,331.4V339c0,.56,0,1.19.06,1.62h-1l-.05-1.09h0a2.33,2.33,0,0,1-2.14,1.23c-1.53,0-2.69-1.28-2.69-3.19,0-2.1,1.28-3.38,2.82-3.38a2.08,2.08,0,0,1,1.89,1h0V331.4Zm-1.14,5.5a2,2,0,0,0,0-.48,1.68,1.68,0,0,0-1.65-1.33c-1.19,0-1.89,1-1.89,2.43s.63,2.33,1.86,2.33a1.73,1.73,0,0,0,1.68-1.36,2,2,0,0,0,0-.5Z"/><path d="M520.07,340.63l-.1-.79h0a2.36,2.36,0,0,1-1.93.93,1.79,1.79,0,0,1-1.92-1.8c0-1.52,1.35-2.36,3.78-2.34v-.13a1.3,1.3,0,0,0-1.43-1.46,3.14,3.14,0,0,0-1.64.47l-.26-.75a3.91,3.91,0,0,1,2.07-.56c1.92,0,2.39,1.31,2.39,2.57v2.35a8.62,8.62,0,0,0,.11,1.51Zm-.17-3.21c-1.25,0-2.67.2-2.67,1.42a1,1,0,0,0,1.08,1.09,1.56,1.56,0,0,0,1.52-1.05,1.21,1.21,0,0,0,.07-.37Z"/><path d="M528.28,331.4V339c0,.56,0,1.19.05,1.62h-1l-.06-1.09h0a2.33,2.33,0,0,1-2.15,1.23c-1.52,0-2.69-1.28-2.69-3.19,0-2.1,1.29-3.38,2.82-3.38a2.08,2.08,0,0,1,1.9,1h0V331.4Zm-1.14,5.5a2,2,0,0,0,0-.48,1.69,1.69,0,0,0-1.66-1.33c-1.18,0-1.88,1-1.88,2.43s.62,2.33,1.86,2.33a1.73,1.73,0,0,0,1.68-1.36,2,2,0,0,0,0-.5Z"/><path d="M529.78,340a.76.76,0,0,1,.78-.82.82.82,0,0,1,0,1.63A.76.76,0,0,1,529.78,340Z"/><text class="cls-6" transform="translate(262.38 504.13)">GERENTE GENE<tspan class="cls-7" x="82.09" y="0">R</tspan><tspan x="89.15" y="0">AL</tspan></text></svg>