<svg id="Capa_1" data-name="Capa 1" xmlns="http://www.w3.org/2000/svg" viewBox="0 0 510.42 480.15"><defs><style>.cls-1{fill:#050505;}</style></defs><polygon class="cls-1" points="379.01 194.7 354.24 178.27 354.21 178.24 354.2 178.24 354.18 178.24 354.16 178.27 257.34 246.75 256.84 246.75 256.84 263.14 279.48 278.57 280.47 279.97 338.4 239 338.26 320.7 337.97 321.11 338.37 321.39 338.37 325.9 201.99 424.39 236.4 449.55 378.6 346.85 378.6 321.06 378.75 321.06 378.95 202.1 378.93 202.1 379.01 201.98 379.01 194.7"/><polygon class="cls-1" points="209.53 338.2 199.84 344.16 190.15 338.2 190.15 326.28 199.84 320.31 209.53 326.28 209.53 338.2"/><polygon class="cls-1" points="187.99 272.85 178.04 279.02 168.08 272.85 168.08 260.49 178.04 254.31 187.99 260.49 187.99 272.85"/><polygon class="cls-1" points="106.13 230.09 98.06 235.17 89.98 230.09 89.98 219.95 98.06 214.88 106.13 219.95 106.13 230.09"/><polygon class="cls-1" points="237.04 305.41 218.44 316.95 199.84 305.41 199.84 282.33 218.44 270.79 237.04 282.33 237.04 305.41"/><polygon class="cls-1" points="131.84 342.35 112.75 354.18 93.65 342.35 93.65 318.69 112.75 306.86 131.84 318.69 131.84 342.35"/><polygon class="cls-1" points="128.17 276.9 109.08 288.37 89.98 276.9 89.98 253.97 109.08 242.51 128.17 253.97 128.17 276.9"/><polygon class="cls-1" points="310.95 311.52 286.96 296.38 187.02 368.14 171.77 356.93 171.77 336.98 157.93 327.5 144.1 336.21 144.1 354 129.07 364 128.8 370.6 142.76 380.81 142.76 380.81 187.48 413.67 308.44 326.81 308.44 326.81 308.68 326.64 308.68 326.64 310.95 324.94 310.95 311.52"/><polygon class="cls-1" points="370.56 53.33 354.27 63.19 354.27 79.71 329.36 97.76 323.97 94.24 307.89 105.62 307.84 125.83 178.76 216.25 179.22 242.85 194.47 252.82 201.34 248.48 339.37 151.8 340 104.7 339.52 104.38 362.38 87.82 370.56 92.77 386.85 82.91 386.85 63.19 370.56 53.33"/><polygon class="cls-1" points="372.13 129.76 362.87 136.1 353.24 130.35 352.86 118.25 362.12 111.91 371.75 117.66 372.13 129.76"/><polygon class="cls-1" points="310.55 36.71 297.08 44.66 297.08 58.85 278.61 71.99 278.72 72.14 278.7 72.14 278.7 91.6 129.28 195.9 129.24 195.9 129.24 195.92 129.24 195.92 129.24 195.92 129.24 214.74 118.27 221.49 118.27 238.15 131.29 246.49 146.31 236.91 146.5 281.24 133.76 288.96 133.76 312.15 152.92 323.75 172.07 312.15 172.07 288.96 161.18 282.36 160.9 216.18 160.11 212.51 296.61 117.23 296.62 117.23 296.62 74.93 307.86 66.94 310.55 68.53 324.02 60.57 324.02 44.66 310.55 36.71"/><polygon class="cls-1" points="241.26 57.12 224.48 67.29 224.48 84.12 93.42 173.88 93.42 202.26 103.25 209.14 113.07 202.84 113.07 185.73 242.71 96.94 258.04 87.64 258.04 67.29 241.26 57.12"/></svg>